<?xml version="1.0" encoding="utf-8"?>
<!-- Generator: Adobe Illustrator 24.2.0, SVG Export Plug-In . SVG Version: 6.00 Build 0)  -->
<svg version="1.1" id="Layer_1" xmlns="http://www.w3.org/2000/svg" xmlns:xlink="http://www.w3.org/1999/xlink" x="0px" y="0px"
	 viewBox="0 0 194 288" style="enable-background:new 0 0 194 288;" xml:space="preserve">
<style type="text/css">
	.st0{enable-background:new    ;}
	.st1{fill:none;}
</style>
<g class="st0">
	<path d="M53.1,214.3H57l7,12.3v-12.3h3.4v17.7h-3.7l-7.2-12.5v12.5h-3.4V214.3z"/>
	<path d="M81.5,230.3c-1.1,1.4-2.8,2-5,2c-2.2,0-3.9-0.7-5-2c-1.1-1.4-1.7-3-1.7-4.9c0-1.9,0.6-3.5,1.7-4.9c1.1-1.4,2.8-2.1,5-2.1
		c2.2,0,3.9,0.7,5,2.1c1.1,1.4,1.7,3,1.7,4.9C83.2,227.3,82.6,229,81.5,230.3z M78.8,228.5c0.5-0.7,0.8-1.7,0.8-3
		c0-1.3-0.3-2.3-0.8-3s-1.3-1.1-2.3-1.1c-1,0-1.8,0.4-2.3,1.1s-0.8,1.7-0.8,3c0,1.3,0.3,2.3,0.8,3c0.5,0.7,1.3,1.1,2.3,1.1
		C77.5,229.5,78.2,229.2,78.8,228.5z"/>
	<path d="M92.5,219.1c0.6,0.3,1.1,0.8,1.5,1.4v-6.2h3.5v17.7h-3.3v-1.8c-0.5,0.8-1,1.3-1.7,1.7c-0.6,0.4-1.4,0.5-2.3,0.5
		c-1.5,0-2.8-0.6-3.9-1.9c-1-1.2-1.6-2.8-1.6-4.8c0-2.2,0.5-4,1.5-5.3c1-1.3,2.4-1.9,4.1-1.9C91.2,218.6,91.9,218.7,92.5,219.1z
		 M93.4,228.4c0.5-0.7,0.8-1.7,0.8-2.8c0-1.6-0.4-2.7-1.2-3.4c-0.5-0.4-1.1-0.6-1.7-0.6c-1,0-1.7,0.4-2.2,1.1
		c-0.5,0.8-0.7,1.7-0.7,2.8c0,1.2,0.2,2.2,0.7,2.9c0.5,0.7,1.2,1.1,2.2,1.1S92.9,229.1,93.4,228.4z"/>
	<path d="M109.1,219.1c0.9,0.4,1.7,1.1,2.3,1.9c0.5,0.8,0.9,1.7,1,2.7c0.1,0.6,0.1,1.5,0.1,2.6H103c0.1,1.3,0.5,2.2,1.4,2.8
		c0.5,0.3,1.2,0.5,1.9,0.5c0.8,0,1.4-0.2,1.9-0.6c0.3-0.2,0.5-0.5,0.7-0.9h3.5c-0.1,0.8-0.5,1.6-1.3,2.4c-1.2,1.3-2.8,1.9-4.9,1.9
		c-1.7,0-3.3-0.5-4.6-1.6c-1.3-1.1-2-2.8-2-5.2c0-2.3,0.6-4,1.8-5.2s2.8-1.8,4.7-1.8C107.2,218.5,108.2,218.7,109.1,219.1z
		 M104,222.1c-0.5,0.5-0.8,1.2-0.9,2h5.9c-0.1-0.9-0.4-1.6-0.9-2.1s-1.2-0.7-2-0.7C105.2,221.3,104.5,221.6,104,222.1z"/>
	<path d="M116.7,225.2v0.4c0,1.4,0.2,2.3,0.4,2.9c0.3,0.6,0.8,0.8,1.6,0.8c0.8,0,1.4-0.3,1.6-0.9c0.2-0.4,0.2-1,0.2-1.8v-12.4h3.7
		v12.3c0,1.5-0.3,2.7-0.8,3.6c-0.9,1.5-2.4,2.2-4.7,2.2s-3.7-0.6-4.5-1.8c-0.8-1.2-1.1-2.8-1.1-4.9v-0.4H116.7z"/>
	<path d="M130.9,226.5c0.1,0.8,0.3,1.4,0.7,1.8c0.6,0.7,1.7,1.1,3.1,1.1c0.9,0,1.6-0.1,2.2-0.3c1.1-0.4,1.6-1.1,1.6-2.1
		c0-0.6-0.3-1-0.8-1.4c-0.5-0.3-1.3-0.6-2.5-0.8l-1.9-0.4c-1.9-0.4-3.2-0.9-3.9-1.4c-1.2-0.8-1.8-2.1-1.8-3.8c0-1.6,0.6-2.9,1.7-3.9
		c1.2-1,2.9-1.6,5.1-1.6c1.9,0,3.5,0.5,4.8,1.5s2,2.4,2.1,4.3h-3.5c-0.1-1.1-0.5-1.8-1.4-2.3c-0.6-0.3-1.3-0.4-2.2-0.4
		c-1,0-1.8,0.2-2.3,0.6c-0.6,0.4-0.9,0.9-0.9,1.6c0,0.6,0.3,1.1,0.9,1.4c0.4,0.2,1.2,0.5,2.3,0.7l3.1,0.7c1.4,0.3,2.4,0.7,3.1,1.3
		c1.1,0.8,1.6,2,1.6,3.6c0,1.6-0.6,3-1.9,4c-1.2,1.1-3,1.6-5.3,1.6c-2.3,0-4.2-0.5-5.5-1.6s-2-2.5-2-4.3H130.9z"/>
</g>
<g class="st0">
	<path d="M59,248.9c-0.3-1.5-1-2.6-1.9-3.2c-0.9-0.6-2.2-1-3.7-1c-1.1,0-2,0.2-2.8,0.6c-0.8,0.4-1.4,1-1.9,1.7
		c-0.5,0.7-0.9,1.6-1.1,2.5s-0.4,1.9-0.4,3c0,1,0.1,1.9,0.3,2.9c0.2,1,0.5,1.8,1,2.5c0.5,0.7,1.1,1.3,1.9,1.8c0.8,0.5,1.8,0.7,3,0.7
		c0.8,0,1.4-0.1,2.1-0.4c0.6-0.2,1.2-0.6,1.6-1s0.9-0.9,1.2-1.5c0.3-0.6,0.6-1.2,0.7-1.9h1.7c-0.2,0.9-0.5,1.7-0.9,2.4
		c-0.4,0.8-0.9,1.4-1.5,2c-0.6,0.6-1.4,1-2.2,1.4c-0.9,0.3-1.9,0.5-3.1,0.5c-1.4,0-2.5-0.2-3.5-0.7c-1-0.5-1.8-1.2-2.4-2
		c-0.6-0.9-1.1-1.8-1.3-3c-0.3-1.1-0.4-2.3-0.4-3.6c0-1.7,0.2-3.1,0.6-4.3s1-2.1,1.7-2.9c0.7-0.7,1.6-1.3,2.6-1.6
		c1-0.3,2.1-0.5,3.3-0.5c0.9,0,1.7,0.1,2.5,0.4c0.8,0.2,1.5,0.6,2.1,1.1s1.1,1.1,1.5,1.8c0.4,0.7,0.7,1.5,0.8,2.4H59z"/>
	<path d="M64,261.4v-17.7h1.5v6.7c0.6-0.6,1.2-1.1,1.8-1.5c0.6-0.4,1.4-0.6,2.3-0.6c0.8,0,1.5,0.1,2.2,0.4c0.7,0.3,1.2,0.7,1.7,1.4
		c0.3,0.5,0.5,0.9,0.6,1.4c0.1,0.5,0.1,1,0.1,1.5v8.3h-1.5v-8.3c0-1.1-0.3-2-0.8-2.6c-0.5-0.6-1.4-0.9-2.5-0.9
		c-0.5,0-0.9,0.1-1.3,0.2c-0.4,0.1-0.7,0.3-1,0.6c-0.3,0.2-0.6,0.5-0.8,0.8c-0.2,0.3-0.4,0.6-0.5,0.9c-0.1,0.4-0.2,0.8-0.3,1.2
		c0,0.4,0,0.8,0,1.2v6.9H64z"/>
	<path d="M83.5,254c0.3,0,0.6-0.1,1-0.1s0.7-0.2,0.9-0.3c0.2-0.1,0.4-0.3,0.5-0.6c0.1-0.3,0.1-0.5,0.1-0.7c0-0.8-0.2-1.4-0.7-1.9
		c-0.5-0.5-1.3-0.7-2.4-0.7c-0.5,0-1,0-1.4,0.1c-0.4,0.1-0.8,0.2-1.1,0.5c-0.3,0.2-0.6,0.5-0.8,0.9c-0.2,0.4-0.3,0.8-0.4,1.4h-1.5
		c0-0.8,0.2-1.4,0.5-1.9c0.3-0.5,0.7-1,1.1-1.3c0.5-0.3,1-0.6,1.6-0.7c0.6-0.2,1.3-0.2,2-0.2c0.6,0,1.2,0.1,1.8,0.2
		c0.6,0.1,1.1,0.4,1.5,0.7c0.4,0.3,0.7,0.7,1,1.2s0.4,1.1,0.4,1.9v6.9c0,0.6,0.1,0.9,0.3,1.1c0.2,0.2,0.6,0.1,1.2-0.1v1.2
		c-0.1,0-0.3,0.1-0.5,0.1c-0.2,0.1-0.4,0.1-0.7,0.1c-0.2,0-0.5,0-0.7-0.1c-0.2,0-0.4-0.1-0.6-0.2s-0.3-0.3-0.4-0.4
		c-0.1-0.2-0.2-0.4-0.2-0.6c0-0.2,0-0.4,0-0.7c-0.6,0.7-1.3,1.2-2.1,1.6c-0.8,0.4-1.7,0.5-2.6,0.5c-0.6,0-1.1-0.1-1.6-0.2
		s-1-0.4-1.4-0.7c-0.4-0.3-0.7-0.7-0.9-1.1c-0.2-0.5-0.3-1-0.3-1.6c0-2.2,1.5-3.4,4.4-3.8L83.5,254z M85.9,254.8
		c-0.6,0.3-1.3,0.4-1.9,0.5c-0.6,0.1-1.3,0.1-1.9,0.2c-1.1,0.1-2,0.3-2.6,0.8s-0.9,1.1-0.9,1.9c0,0.4,0.1,0.7,0.2,1
		c0.2,0.3,0.4,0.5,0.6,0.7c0.3,0.2,0.5,0.3,0.9,0.4c0.3,0.1,0.7,0.1,1,0.1c0.6,0,1.2-0.1,1.7-0.2s1.1-0.4,1.5-0.7
		c0.4-0.3,0.8-0.7,1-1.2c0.3-0.5,0.4-1,0.4-1.7V254.8z"/>
	<path d="M95.7,261.5c-0.2,0-0.4,0.1-0.7,0.2c-0.3,0.1-0.6,0.1-1,0.1c-0.7,0-1.3-0.2-1.7-0.6c-0.4-0.4-0.6-1-0.6-2v-9.3H90v-1.2h1.8
		v-3.5h1.5v3.5h2.4v1.2h-2.4v8.7c0,0.3,0,0.6,0,0.8c0,0.2,0.1,0.4,0.1,0.6c0.1,0.1,0.2,0.3,0.4,0.3s0.4,0.1,0.7,0.1
		c0.2,0,0.4,0,0.6,0c0.2,0,0.4-0.1,0.6-0.1V261.5z"/>
	<path d="M103.5,261.4l7-17.7h1.9l6.8,17.7h-1.7l-2-5.5h-8.1l-2.1,5.5H103.5z M107.9,254.5h6.9l-3.5-9.3L107.9,254.5z"/>
	<path d="M122.9,266.5h-1.5v-17.7h1.5v2.2h0c0.2-0.4,0.5-0.8,0.8-1.1c0.3-0.3,0.7-0.6,1.1-0.8c0.4-0.2,0.8-0.4,1.2-0.5
		c0.4-0.1,0.8-0.2,1.3-0.2c1,0,1.9,0.2,2.6,0.5c0.7,0.3,1.3,0.8,1.8,1.4c0.5,0.6,0.8,1.3,1,2.1c0.2,0.8,0.3,1.7,0.3,2.6
		c0,0.9-0.1,1.7-0.3,2.6c-0.2,0.8-0.6,1.5-1,2.1c-0.5,0.6-1.1,1.1-1.8,1.5s-1.6,0.6-2.5,0.6c-0.9,0-1.8-0.2-2.6-0.6
		c-0.8-0.4-1.5-1-2-1.8V266.5z M122.9,255.1c0,0.7,0.1,1.4,0.3,2c0.2,0.6,0.5,1.2,0.8,1.7c0.4,0.5,0.8,0.9,1.4,1.2
		c0.5,0.3,1.1,0.4,1.8,0.4c0.8,0,1.4-0.2,2-0.5c0.6-0.3,1-0.7,1.4-1.2c0.4-0.5,0.6-1.1,0.8-1.8c0.2-0.7,0.2-1.4,0.2-2.2
		c0-0.8-0.1-1.5-0.3-2.1c-0.2-0.6-0.5-1.1-0.9-1.6c-0.4-0.4-0.9-0.7-1.4-1c-0.5-0.2-1.1-0.3-1.7-0.3c-0.7,0-1.3,0.1-1.8,0.4
		s-1,0.7-1.4,1.1c-0.4,0.5-0.6,1.1-0.8,1.7C123,253.6,122.9,254.4,122.9,255.1z"/>
	<path d="M137.9,266.5h-1.5v-17.7h1.5v2.2h0c0.2-0.4,0.5-0.8,0.8-1.1c0.3-0.3,0.7-0.6,1.1-0.8c0.4-0.2,0.8-0.4,1.2-0.5
		c0.4-0.1,0.8-0.2,1.3-0.2c1,0,1.9,0.2,2.6,0.5c0.7,0.3,1.3,0.8,1.8,1.4c0.5,0.6,0.8,1.3,1,2.1c0.2,0.8,0.3,1.7,0.3,2.6
		c0,0.9-0.1,1.7-0.3,2.6c-0.2,0.8-0.6,1.5-1,2.1c-0.5,0.6-1.1,1.1-1.8,1.5s-1.6,0.6-2.5,0.6c-0.9,0-1.8-0.2-2.6-0.6
		c-0.8-0.4-1.5-1-2-1.8V266.5z M137.9,255.1c0,0.7,0.1,1.4,0.3,2c0.2,0.6,0.5,1.2,0.8,1.7c0.4,0.5,0.8,0.9,1.4,1.2
		c0.5,0.3,1.1,0.4,1.8,0.4c0.8,0,1.4-0.2,2-0.5c0.6-0.3,1-0.7,1.4-1.2c0.4-0.5,0.6-1.1,0.8-1.8c0.2-0.7,0.2-1.4,0.2-2.2
		c0-0.8-0.1-1.5-0.3-2.1c-0.2-0.6-0.5-1.1-0.9-1.6c-0.4-0.4-0.9-0.7-1.4-1c-0.5-0.2-1.1-0.3-1.7-0.3c-0.7,0-1.3,0.1-1.8,0.4
		s-1,0.7-1.4,1.1c-0.4,0.5-0.6,1.1-0.8,1.7C138,253.6,137.9,254.4,137.9,255.1z"/>
</g>
<line class="st1" x1="64.9" y1="76.6" x2="129.1" y2="12.5"/>
<g>
	<g>
		<g>
			<path d="M150.8,122.1c-1-2.6-4-3.8-6.6-2.8c-2.6,1-3.8,4-2.8,6.6l6,14.7l-17.7-7.8c-1.3-0.6-2.7-0.6-4,0
				c-6,2.6-12.5,3.9-19.3,3.9c-27.1,0-45.3-21.2-45.3-41c0-22.6,20.3-41,45.3-41s45.3,18.4,45.3,41c0,1.8-0.2,3.9-0.5,5.8
				c-0.4,2.8,1.5,5.3,4.3,5.7c2.8,0.4,5.3-1.5,5.7-4.3c0.4-2.4,0.6-5,0.6-7.3c0-13.7-5.8-26.6-16.4-36.3
				c-10.4-9.6-24.3-14.8-39-14.8s-28.6,5.3-39,14.8c-9.4,8.6-15.1,19.9-16.2,32c-11.9,7.9-18.9,20.5-18.9,34
				c0,8.5,2.7,16.5,7.8,23.5l-7.4,18.3c-0.8,1.9-0.3,4.1,1.2,5.5c1,0.9,2.2,1.4,3.5,1.4c0.7,0,1.4-0.1,2-0.4l21.3-9.4
				c5.4,2,11,3,16.9,3c0.1,0,0.3,0,0.4,0c8.5-0.1,16.7-2.3,23.8-6.5c6.4-3.7,11.6-8.9,15.3-14.9c3.6-0.6,7.1-1.6,10.5-2.9l27.1,12
				c0.7,0.3,1.4,0.4,2,0.4c1.3,0,2.6-0.5,3.5-1.4c1.5-1.4,1.9-3.6,1.2-5.5L150.8,122.1z M77.5,157.1c-0.1,0-0.1,0-0.2,0
				c-5.2,0-10.1-1-14.8-3c-1.3-0.5-2.7-0.5-4,0l-11.8,5.2l3.8-9.5c0.7-1.7,0.4-3.7-0.8-5.2c-4.8-5.6-7.3-12.3-7.3-19.3
				c0-8.1,3.4-15.7,9.4-21.6c1.9,10.1,7.1,19.8,15,27.3c9.8,9.4,22.8,14.9,36.8,15.6C96.9,153.2,87.5,157.1,77.5,157.1z"/>
			<circle cx="106.1" cy="95.9" r="5.1"/>
			<circle cx="126.3" cy="95.9" r="5.1"/>
			<circle cx="85.9" cy="95.9" r="5.1"/>
		</g>
	</g>
</g>
</svg>
