<?xml version="1.0" encoding="utf-8"?>
<!-- Generator: Adobe Illustrator 24.2.0, SVG Export Plug-In . SVG Version: 6.00 Build 0)  -->
<svg version="1.1" id="Layer_1" xmlns="http://www.w3.org/2000/svg" xmlns:xlink="http://www.w3.org/1999/xlink" x="0px" y="0px"
	 viewBox="0 0 194 288" style="enable-background:new 0 0 194 288;" xml:space="preserve">
<style type="text/css">
	.st0{enable-background:new    ;}
	.st1{fill:none;}
	.st2{fill:#FFFFFF;}
	.st3{fill:none;stroke:url(#Trackpad_x5F_Outline_2_);stroke-width:0.2571;stroke-miterlimit:10;}
</style>
<g class="st0">
	<path d="M32.3,233.3c-1,0.9-2.5,1.3-4.4,1.3h-3.7v6.4h-3.7v-17.7h7.6c1.7,0,3.1,0.5,4.2,1.4s1.6,2.3,1.6,4.2
		C33.9,231,33.3,232.4,32.3,233.3z M29.5,226.9c-0.5-0.4-1.1-0.6-2-0.6h-3.3v5.2h3.3c0.8,0,1.5-0.2,2-0.6c0.5-0.4,0.7-1.1,0.7-2
		C30.2,228,30,227.3,29.5,226.9z"/>
	<path d="M47.4,239.3c-1.1,1.4-2.8,2-5,2c-2.2,0-3.9-0.7-5-2c-1.1-1.4-1.7-3-1.7-4.9c0-1.9,0.6-3.5,1.7-4.9c1.1-1.4,2.8-2.1,5-2.1
		c2.2,0,3.9,0.7,5,2.1c1.1,1.4,1.7,3,1.7,4.9C49.1,236.3,48.6,238,47.4,239.3z M44.7,237.5c0.5-0.7,0.8-1.7,0.8-3
		c0-1.3-0.3-2.3-0.8-3s-1.3-1.1-2.3-1.1c-1,0-1.8,0.4-2.3,1.1s-0.8,1.7-0.8,3c0,1.3,0.3,2.3,0.8,3c0.5,0.7,1.3,1.1,2.3,1.1
		C43.4,238.5,44.2,238.2,44.7,237.5z"/>
	<path d="M58.8,227.6c0,0,0.1,0,0.3,0v3.5c-0.2,0-0.4,0-0.6,0s-0.3,0-0.4,0c-1.4,0-2.3,0.4-2.8,1.3c-0.3,0.5-0.4,1.3-0.4,2.3v6.2
		h-3.4v-13.1h3.3v2.3c0.5-0.9,1-1.5,1.4-1.8c0.6-0.5,1.5-0.8,2.5-0.8C58.7,227.6,58.8,227.6,58.8,227.6z"/>
	<path d="M59.8,230.4V228h1.8v-3.6H65v3.6h2.1v2.4H65v6.9c0,0.5,0.1,0.9,0.2,1c0.1,0.1,0.6,0.2,1.2,0.2c0.1,0,0.2,0,0.3,0
		c0.1,0,0.2,0,0.3,0v2.6l-1.6,0.1c-1.6,0.1-2.7-0.2-3.3-0.8c-0.4-0.4-0.6-1-0.6-1.8v-8H59.8z"/>
	<path d="M74.7,223.1c0.2,0,0.4,0,0.7,0.1v2.8c-0.2,0-0.5,0-1-0.1c-0.5,0-0.8,0.1-0.9,0.3s-0.3,0.4-0.3,0.7s0,0.6,0,1.1h2.2v2.4
		h-2.2v10.5h-3.4v-10.5h-1.9V228h1.9v-0.8c0-1.4,0.2-2.4,0.7-2.9c0.5-0.8,1.7-1.2,3.6-1.2C74.3,223.1,74.5,223.1,74.7,223.1z"/>
	<path d="M88.4,239.3c-1.1,1.4-2.8,2-5,2c-2.2,0-3.9-0.7-5-2c-1.1-1.4-1.7-3-1.7-4.9c0-1.9,0.6-3.5,1.7-4.9c1.1-1.4,2.8-2.1,5-2.1
		c2.2,0,3.9,0.7,5,2.1c1.1,1.4,1.7,3,1.7,4.9C90,236.3,89.5,238,88.4,239.3z M85.6,237.5c0.5-0.7,0.8-1.7,0.8-3c0-1.3-0.3-2.3-0.8-3
		s-1.3-1.1-2.3-1.1c-1,0-1.8,0.4-2.3,1.1s-0.8,1.7-0.8,3c0,1.3,0.3,2.3,0.8,3c0.5,0.7,1.3,1.1,2.3,1.1
		C84.3,238.5,85.1,238.2,85.6,237.5z"/>
	<path d="M96,240.9h-3.4v-17.7H96V240.9z"/>
	<path d="M102.8,226.3h-3.5v-3.2h3.5V226.3z M99.3,227.9h3.5v13.1h-3.5V227.9z"/>
	<path d="M117,239.3c-1.1,1.4-2.8,2-5,2c-2.2,0-3.9-0.7-5-2c-1.1-1.4-1.7-3-1.7-4.9c0-1.9,0.6-3.5,1.7-4.9c1.1-1.4,2.8-2.1,5-2.1
		c2.2,0,3.9,0.7,5,2.1c1.1,1.4,1.7,3,1.7,4.9C118.7,236.3,118.1,238,117,239.3z M114.3,237.5c0.5-0.7,0.8-1.7,0.8-3
		c0-1.3-0.3-2.3-0.8-3c-0.5-0.7-1.3-1.1-2.3-1.1s-1.8,0.4-2.3,1.1c-0.5,0.7-0.8,1.7-0.8,3c0,1.3,0.3,2.3,0.8,3
		c0.5,0.7,1.3,1.1,2.3,1.1S113.7,238.2,114.3,237.5z"/>
	<path d="M120.1,232.5h6.7v3.2h-6.7V232.5z"/>
	<path d="M134.6,223.3h4.2l6.3,17.7h-4l-1.2-3.6h-6.5l-1.2,3.6h-3.9L134.6,223.3z M134.4,234.3h4.5l-2.2-7L134.4,234.3z"/>
	<path d="M158,229.3c1.1,1.1,1.6,2.8,1.6,5c0,2.3-0.5,4.1-1.6,5.3c-1,1.2-2.4,1.8-4,1.8c-1,0-1.9-0.3-2.6-0.8
		c-0.4-0.3-0.7-0.7-1.1-1.3v6.8h-3.4v-18.2h3.3v1.9c0.4-0.6,0.8-1,1.2-1.3c0.8-0.6,1.7-0.9,2.7-0.9
		C155.6,227.6,156.9,228.1,158,229.3z M155.4,231.7c-0.5-0.8-1.2-1.2-2.3-1.2c-1.3,0-2.1,0.6-2.6,1.8c-0.2,0.6-0.4,1.4-0.4,2.4
		c0,1.5,0.4,2.6,1.2,3.2c0.5,0.4,1.1,0.5,1.7,0.5c1,0,1.7-0.4,2.2-1.1s0.8-1.7,0.8-2.9C156.1,233.4,155.8,232.5,155.4,231.7z"/>
	<path d="M173,229.3c1.1,1.1,1.6,2.8,1.6,5c0,2.3-0.5,4.1-1.6,5.3c-1,1.2-2.4,1.8-4,1.8c-1,0-1.9-0.3-2.6-0.8
		c-0.4-0.3-0.7-0.7-1.1-1.3v6.8h-3.4v-18.2h3.3v1.9c0.4-0.6,0.8-1,1.2-1.3c0.8-0.6,1.7-0.9,2.7-0.9
		C170.6,227.6,171.9,228.1,173,229.3z M170.4,231.7c-0.5-0.8-1.2-1.2-2.3-1.2c-1.3,0-2.1,0.6-2.6,1.8c-0.2,0.6-0.4,1.4-0.4,2.4
		c0,1.5,0.4,2.6,1.2,3.2c0.5,0.4,1.1,0.5,1.7,0.5c1,0,1.7-0.4,2.2-1.1s0.8-1.7,0.8-2.9C171.1,233.4,170.8,232.5,170.4,231.7z"/>
	<path d="M49.7,270.4v-17.7h11.4v1.4h-9.7v6.4h8.8v1.4h-8.8v8.4H49.7z"/>
	<path d="M64.8,270.4h-1.5v-12.7h1.5v2.4h0c0.4-1,0.9-1.7,1.6-2.1c0.6-0.4,1.5-0.6,2.6-0.6v1.6c-0.8,0-1.5,0.1-2.1,0.4
		c-0.5,0.3-1,0.7-1.3,1.1c-0.3,0.5-0.5,1-0.7,1.7c-0.1,0.6-0.2,1.3-0.2,2V270.4z"/>
	<path d="M76.5,270.8c-0.8,0-1.6-0.2-2.3-0.4c-0.7-0.3-1.3-0.7-1.9-1.3c-0.5-0.6-1-1.3-1.3-2.1c-0.3-0.8-0.5-1.8-0.5-2.9
		c0-0.9,0.1-1.8,0.4-2.6c0.2-0.8,0.6-1.5,1.1-2.1c0.5-0.6,1.1-1.1,1.8-1.4c0.7-0.4,1.6-0.5,2.6-0.5c1,0,1.9,0.2,2.6,0.5
		c0.7,0.4,1.4,0.8,1.8,1.4s0.9,1.3,1.1,2.1c0.2,0.8,0.4,1.7,0.4,2.6c0,1-0.1,1.9-0.4,2.8s-0.7,1.5-1.2,2.1c-0.5,0.6-1.1,1-1.9,1.4
		C78.2,270.6,77.4,270.8,76.5,270.8z M80.8,264c0-0.8-0.1-1.5-0.2-2.1c-0.2-0.7-0.4-1.2-0.8-1.7c-0.3-0.5-0.8-0.9-1.3-1.1
		c-0.5-0.3-1.2-0.4-2-0.4c-0.8,0-1.4,0.2-2,0.5c-0.5,0.3-1,0.7-1.3,1.2s-0.6,1.1-0.8,1.7c-0.2,0.6-0.2,1.3-0.2,2
		c0,0.8,0.1,1.5,0.3,2.2c0.2,0.7,0.5,1.2,0.8,1.7c0.4,0.5,0.8,0.8,1.4,1.1c0.5,0.3,1.2,0.4,1.9,0.4c0.8,0,1.4-0.2,2-0.5
		c0.5-0.3,1-0.7,1.3-1.2c0.3-0.5,0.6-1.1,0.8-1.7S80.8,264.7,80.8,264z"/>
	<path d="M86.6,270.4h-1.5v-12.7h1.5v1.8c0.6-0.6,1.2-1.1,1.8-1.5c0.6-0.4,1.4-0.6,2.3-0.6c0.8,0,1.5,0.1,2.2,0.4
		c0.7,0.3,1.2,0.7,1.7,1.4c0.3,0.5,0.5,0.9,0.6,1.4c0.1,0.5,0.1,1,0.1,1.5v8.3h-1.5v-8.3c0-1.1-0.3-2-0.8-2.6
		c-0.5-0.6-1.4-0.9-2.5-0.9c-0.5,0-0.9,0.1-1.3,0.2c-0.4,0.1-0.7,0.3-1,0.6c-0.3,0.2-0.6,0.5-0.8,0.8c-0.2,0.3-0.4,0.6-0.5,0.9
		c-0.1,0.4-0.2,0.8-0.3,1.2c0,0.4,0,0.8,0,1.2V270.4z"/>
	<path d="M103.2,270.5c-0.2,0-0.4,0.1-0.7,0.2c-0.3,0.1-0.6,0.1-1,0.1c-0.7,0-1.3-0.2-1.7-0.6c-0.4-0.4-0.6-1-0.6-2v-9.3h-1.8v-1.2
		h1.8v-3.5h1.5v3.5h2.4v1.2h-2.4v8.7c0,0.3,0,0.6,0,0.8c0,0.2,0.1,0.4,0.1,0.6c0.1,0.1,0.2,0.3,0.4,0.3s0.4,0.1,0.7,0.1
		c0.2,0,0.4,0,0.6,0s0.4-0.1,0.6-0.1V270.5z"/>
	<path d="M106.5,264.4c0,0.7,0.1,1.3,0.3,2c0.2,0.6,0.4,1.1,0.8,1.6c0.4,0.5,0.8,0.8,1.3,1.1c0.5,0.3,1.2,0.4,1.9,0.4
		c1,0,1.8-0.3,2.5-0.8c0.7-0.5,1.1-1.2,1.4-2.2h1.6c-0.2,0.6-0.4,1.2-0.7,1.7s-0.7,1-1.1,1.4c-0.4,0.4-1,0.7-1.6,0.9
		c-0.6,0.2-1.3,0.3-2.1,0.3c-1,0-1.9-0.2-2.6-0.5s-1.3-0.8-1.8-1.4c-0.5-0.6-0.8-1.3-1.1-2.1c-0.2-0.8-0.3-1.7-0.3-2.6
		c0-0.9,0.1-1.8,0.4-2.6c0.3-0.8,0.7-1.5,1.2-2.1c0.5-0.6,1.1-1.1,1.8-1.4c0.7-0.4,1.5-0.5,2.5-0.5c1.8,0,3.1,0.6,4.1,1.8
		c1,1.2,1.5,3,1.5,5.2H106.5z M114.8,263.2c0-0.6-0.1-1.2-0.3-1.8c-0.2-0.5-0.4-1-0.8-1.4c-0.3-0.4-0.8-0.7-1.3-1
		c-0.5-0.2-1.1-0.4-1.7-0.4s-1.2,0.1-1.7,0.4c-0.5,0.2-0.9,0.6-1.3,1c-0.4,0.4-0.6,0.9-0.8,1.4s-0.4,1.1-0.4,1.7H114.8z"/>
	<path d="M120.7,270.4h-1.5v-12.7h1.5v1.8c0.6-0.6,1.2-1.1,1.8-1.5c0.6-0.4,1.4-0.6,2.3-0.6c0.8,0,1.5,0.1,2.2,0.4
		c0.7,0.3,1.2,0.7,1.7,1.4c0.3,0.5,0.5,0.9,0.6,1.4c0.1,0.5,0.1,1,0.1,1.5v8.3h-1.5v-8.3c0-1.1-0.3-2-0.8-2.6
		c-0.5-0.6-1.4-0.9-2.5-0.9c-0.5,0-0.9,0.1-1.3,0.2c-0.4,0.1-0.7,0.3-1,0.6s-0.6,0.5-0.8,0.8c-0.2,0.3-0.4,0.6-0.5,0.9
		c-0.1,0.4-0.2,0.8-0.3,1.2c0,0.4,0,0.8,0,1.2V270.4z"/>
	<path d="M142.7,252.7h1.5v17.7h-1.5v-2.2h0c-0.2,0.4-0.5,0.8-0.8,1.1s-0.7,0.6-1.1,0.8c-0.4,0.2-0.8,0.4-1.2,0.5s-0.8,0.2-1.3,0.2
		c-1,0-1.9-0.2-2.6-0.5c-0.7-0.3-1.3-0.8-1.8-1.4c-0.5-0.6-0.8-1.3-1-2.1c-0.2-0.8-0.3-1.7-0.3-2.6c0-0.9,0.1-1.7,0.3-2.6
		c0.2-0.8,0.6-1.5,1-2.1c0.5-0.6,1.1-1.1,1.8-1.5c0.7-0.4,1.6-0.6,2.5-0.6c0.9,0,1.8,0.2,2.6,0.6c0.8,0.4,1.5,1,2,1.8V252.7z
		 M142.7,264c0-0.7-0.1-1.4-0.3-2.1c-0.2-0.6-0.5-1.2-0.8-1.7c-0.4-0.5-0.8-0.9-1.4-1.2c-0.5-0.3-1.1-0.4-1.8-0.4
		c-0.8,0-1.4,0.2-2,0.5c-0.6,0.3-1,0.7-1.4,1.2c-0.4,0.5-0.6,1.1-0.8,1.8c-0.2,0.7-0.2,1.4-0.2,2.2c0,0.8,0.1,1.5,0.3,2.1
		c0.2,0.6,0.5,1.1,0.9,1.6c0.4,0.4,0.9,0.7,1.4,1c0.5,0.2,1.1,0.3,1.7,0.3c0.7,0,1.3-0.1,1.8-0.4c0.5-0.3,1-0.7,1.4-1.1
		c0.4-0.5,0.6-1.1,0.8-1.7C142.6,265.5,142.7,264.8,142.7,264z"/>
</g>
<line class="st1" x1="64.9" y1="76.6" x2="129.1" y2="12.5"/>
<g id="laptop_x5F_animated">
	<path id="Base1_1_" d="M173,161.3l-55.6,32.1c-3.7,2.1-8.2,2.1-11.9,0l-87-50.2c-2.9-1.7-4.2-9,0-11.4l52.6-26.5
		c1.5-0.9,100.4,51.3,101.9,52.1V161.3z"/>
	<path id="Base2_1_" d="M173,157.4l-55.6,32.1c-3.7,2.1-8.2,2.1-11.9,0l-87-50.2c-2.9-1.7-2.9-5.9,0-7.5l52.6-30.4
		c1.5-0.9,3.4-0.9,4.9,0L173,157.4z"/>
	<path id="Trackpad_1_" class="st2" d="M86,166.1l-6.4,3.7c-1.5,0.9-3.4,0.9-4.9,0l-20.6-11.9c-2.4-1.4-2.4-4.8,0-6.2l7.4-4.3
		c0.9-0.5,2-0.5,2.9,0L86,160C88.4,161.3,88.4,164.8,86,166.1z"/>
	
		<linearGradient id="Trackpad_x5F_Outline_2_" gradientUnits="userSpaceOnUse" x1="-4902.5229" y1="138.4587" x2="-4878.1948" y2="138.4587" gradientTransform="matrix(1 0 0 -1 4954.6729 290)">
		<stop  offset="0" style="stop-color:#434444"/>
		<stop  offset="1" style="stop-color:#1B1434"/>
	</linearGradient>
	<path id="Trackpad_x5F_Outline_1_" class="st3" d="M52.5,156.1c-0.5-1.5,0-3.4,1.6-4.3l7.4-4.3c0.9-0.5,2-0.5,2.9,0l12,6.9"/>
	<g id="Keyboard_1_">
		<path class="st2" d="M157.4,159.4l-4.2-2.4c-0.4-0.2-0.4-0.6,0-0.8l1.4-0.8c0.4-0.2,1-0.2,1.4,0l4.2,2.4c0.4,0.2,0.4,0.6,0,0.8
			l-1.4,0.8C158.5,159.6,157.8,159.6,157.4,159.4z"/>
		<path class="st2" d="M150.9,155.7l-4.2-2.4c-0.4-0.2-0.4-0.6,0-0.8l1.4-0.8c0.4-0.2,1-0.2,1.4,0l4.2,2.4c0.4,0.2,0.4,0.6,0,0.8
			l-1.4,0.8C152,155.9,151.3,155.9,150.9,155.7z"/>
		<path class="st2" d="M144.4,152l-4.2-2.4c-0.4-0.2-0.4-0.6,0-0.8l1.4-0.8c0.4-0.2,1-0.2,1.4,0l4.2,2.4c0.4,0.2,0.4,0.6,0,0.8
			l-1.4,0.8C145.5,152.2,144.8,152.2,144.4,152z"/>
		<path class="st2" d="M137.9,148.3l-4.2-2.4c-0.4-0.2-0.4-0.6,0-0.8l1.4-0.8c0.4-0.2,1-0.2,1.4,0l4.2,2.4c0.4,0.2,0.4,0.6,0,0.8
			l-1.4,0.8C138.9,148.5,138.3,148.5,137.9,148.3z"/>
		<path class="st2" d="M131.4,144.6l-4.2-2.4c-0.4-0.2-0.4-0.6,0-0.8l1.4-0.8c0.4-0.2,1-0.2,1.4,0l4.2,2.4c0.4,0.2,0.4,0.6,0,0.8
			l-1.4,0.8C132.4,144.8,131.8,144.8,131.4,144.6z"/>
		<path class="st2" d="M124.9,140.9l-4.2-2.4c-0.4-0.2-0.4-0.6,0-0.8l1.4-0.8c0.4-0.2,1-0.2,1.4,0l4.2,2.4c0.4,0.2,0.4,0.6,0,0.8
			l-1.4,0.8C125.9,141.1,125.3,141.1,124.9,140.9z"/>
		<path class="st2" d="M118.4,137.2l-4.2-2.4c-0.4-0.2-0.4-0.6,0-0.8l1.4-0.8c0.4-0.2,1-0.2,1.4,0l4.2,2.4c0.4,0.2,0.4,0.6,0,0.8
			l-1.4,0.8C119.4,137.4,118.8,137.4,118.4,137.2z"/>
		<path class="st2" d="M111.9,133.5l-4.2-2.4c-0.4-0.2-0.4-0.6,0-0.8l1.4-0.8c0.4-0.2,1-0.2,1.4,0l4.2,2.4c0.4,0.2,0.4,0.6,0,0.8
			l-1.4,0.8C112.9,133.7,112.3,133.7,111.9,133.5z"/>
		<path class="st2" d="M105.4,129.8l-4.2-2.4c-0.4-0.2-0.4-0.6,0-0.8l1.4-0.8c0.4-0.2,1-0.2,1.4,0l4.2,2.4c0.4,0.2,0.4,0.6,0,0.8
			l-1.4,0.8C106.4,130,105.8,130,105.4,129.8z"/>
		<path class="st2" d="M98.9,126.1l-4.2-2.4c-0.4-0.2-0.4-0.6,0-0.8l1.4-0.8c0.4-0.2,1-0.2,1.4,0l4.2,2.4c0.4,0.2,0.4,0.6,0,0.8
			l-1.4,0.8C99.9,126.3,99.3,126.3,98.9,126.1z"/>
		<path class="st2" d="M92.4,122.3l-4.2-2.4c-0.4-0.2-0.4-0.6,0-0.8l1.4-0.8c0.4-0.2,1-0.2,1.4,0l4.2,2.4c0.4,0.2,0.4,0.6,0,0.8
			l-1.4,0.8C93.4,122.6,92.8,122.6,92.4,122.3z"/>
		<path class="st2" d="M85.9,118.6l-4.2-2.4c-0.4-0.2-0.4-0.6,0-0.8l1.4-0.8c0.4-0.2,1-0.2,1.4,0l4.2,2.4c0.4,0.2,0.4,0.6,0,0.8
			l-1.4,0.8C86.9,118.9,86.3,118.9,85.9,118.6z"/>
		<path class="st2" d="M79.4,114.9l-4.2-2.4c-0.4-0.2-0.4-0.6,0-0.8l1.4-0.8c0.4-0.2,1-0.2,1.4,0l4.2,2.4c0.4,0.2,0.4,0.6,0,0.8
			l-1.4,0.8C80.4,115.2,79.8,115.2,79.4,114.9z"/>
		<path class="st2" d="M71.4,107.2l4.2,2.4c0.4,0.2,0.4,0.6,0,0.8l-1.4,0.8c-0.4,0.2-1,0.2-1.4,0l-4.2-2.4c-0.4-0.2-0.4-0.6,0-0.8
			l1.4-0.8C70.4,107,71,107,71.4,107.2z"/>
		<path class="st2" d="M151.1,163l-3.5-2c-0.4-0.2-0.4-0.6,0-0.9l3.5-2c0.4-0.2,1.1-0.2,1.6,0l3.5,2c0.4,0.2,0.4,0.6,0,0.9l-3.5,2
			C152.2,163.3,151.5,163.3,151.1,163z"/>
		<path class="st2" d="M144.6,159.3l-3.5-2c-0.4-0.2-0.4-0.6,0-0.9l3.5-2c0.4-0.2,1.1-0.2,1.6,0l3.5,2c0.4,0.2,0.4,0.6,0,0.9l-3.5,2
			C145.7,159.6,145,159.6,144.6,159.3z"/>
		<path class="st2" d="M138.6,155.9l-3.5-2c-0.4-0.2-0.4-0.6,0-0.9l3.5-2c0.4-0.2,1.1-0.2,1.6,0l3.5,2c0.4,0.2,0.4,0.6,0,0.9l-3.5,2
			C139.7,156.1,139,156.1,138.6,155.9z"/>
		<path class="st2" d="M132.1,152.2l-3.5-2c-0.4-0.2-0.4-0.6,0-0.9l3.5-2c0.4-0.2,1.1-0.2,1.6,0l3.5,2c0.4,0.2,0.4,0.6,0,0.9l-3.5,2
			C133.2,152.5,132.5,152.5,132.1,152.2z"/>
		<path class="st2" d="M125.8,148.6l-3.5-2c-0.4-0.2-0.4-0.6,0-0.9l3.5-2c0.4-0.2,1.1-0.2,1.6,0l3.5,2c0.4,0.2,0.4,0.6,0,0.9l-3.5,2
			C127,148.9,126.3,148.9,125.8,148.6z"/>
		<path class="st2" d="M120.9,144.9c-0.4,0.2-1.1,0.2-1.6,0l-3.5-2c-0.4-0.2-0.4-0.6,0-0.9l3.5-2c0.4-0.2,1.1-0.2,1.6,0l3.5,2
			c0.4,0.2,0.4,0.6,0,0.9L120.9,144.9z"/>
		<path class="st2" d="M114.5,141.3c-0.4,0.2-1.1,0.2-1.6,0l-3.5-2c-0.4-0.2-0.4-0.6,0-0.9l3.5-2c0.4-0.2,1.1-0.2,1.6,0l3.5,2
			c0.4,0.2,0.4,0.6,0,0.9L114.5,141.3z"/>
		<path class="st2" d="M108,137.6c-0.4,0.2-1.1,0.2-1.6,0l-3.5-2c-0.4-0.2-0.4-0.6,0-0.9l3.5-2c0.4-0.2,1.1-0.2,1.6,0l3.5,2
			c0.4,0.2,0.4,0.6,0,0.9L108,137.6z"/>
		<path class="st2" d="M105.6,132.2l-3.5,2c-0.4,0.2-1.1,0.2-1.6,0l-3.5-2c-0.4-0.2-0.4-0.6,0-0.9l3.5-2c0.4-0.2,1.1-0.2,1.6,0
			l3.5,2C106,131.5,106,131.9,105.6,132.2z"/>
		<path class="st2" d="M96,125.7l3.5,2c0.4,0.2,0.4,0.6,0,0.9l-3.5,2c-0.4,0.2-1.1,0.2-1.6,0l-3.5-2c-0.4-0.2-0.4-0.6,0-0.9l3.5-2
			C94.8,125.4,95.5,125.4,96,125.7z"/>
		<path class="st2" d="M84.5,125.1c-0.4-0.2-0.4-0.6,0-0.9l3.5-2c0.4-0.2,1.1-0.2,1.6,0l3.5,2c0.4,0.2,0.4,0.6,0,0.9l-3.5,2
			c-0.4,0.2-1.1,0.2-1.6,0L84.5,125.1z"/>
		<path class="st2" d="M78.2,121.5c-0.4-0.2-0.4-0.6,0-0.9l3.5-2c0.4-0.2,1.1-0.2,1.6,0l3.5,2c0.4,0.2,0.4,0.6,0,0.9l-3.5,2
			c-0.4,0.2-1.1,0.2-1.6,0L78.2,121.5z"/>
		<path class="st2" d="M71.7,117.7c-0.4-0.2-0.4-0.6,0-0.9l3.5-2c0.4-0.2,1.1-0.2,1.6,0l3.9,2.2c0.4,0.2,0.4,0.6,0,0.9l-3.5,2
			c-0.4,0.2-1.1,0.2-1.6,0L71.7,117.7z"/>
		<path class="st2" d="M67.6,109.6l6.5,3.6c0.4,0.2,0.4,0.6,0,0.9l-3.5,2c-0.4,0.2-1.1,0.2-1.6,0l-6.5-3.6c-0.4-0.2-0.4-0.6,0-0.9
			l3.5-2C66.5,109.4,67.2,109.4,67.6,109.6z"/>
		<path class="st2" d="M61.3,113.2l3.5,2c0.4,0.2,0.4,0.6,0,0.9l-3.5,2c-0.4,0.2-1.1,0.2-1.6,0l-3.5-2c-0.4-0.2-0.4-0.6,0-0.9l3.5-2
			C60.2,112.9,60.9,112.9,61.3,113.2z"/>
		<path class="st2" d="M62.7,118.9l3.5-2c0.4-0.2,1.1-0.2,1.6,0l3.5,2c0.4,0.2,0.4,0.6,0,0.9l-3.5,2c-0.4,0.2-1.1,0.2-1.6,0l-3.5-2
			C62.3,119.5,62.3,119.1,62.7,118.9z"/>
		<path class="st2" d="M68.7,122.3l3.5-2c0.4-0.2,1.1-0.2,1.6,0l3.5,2c0.4,0.2,0.4,0.6,0,0.9l-3.5,2c-0.4,0.2-1.1,0.2-1.6,0l-3.5-2
			C68.3,123,68.3,122.6,68.7,122.3z"/>
		<path class="st2" d="M75.2,126l3.5-2c0.4-0.2,1.1-0.2,1.6,0l3.5,2c0.4,0.2,0.4,0.6,0,0.9l-3.5,2c-0.4,0.2-1.1,0.2-1.6,0l-3.5-2
			C74.8,126.6,74.8,126.2,75.2,126z"/>
		<path class="st2" d="M90.1,130.5l-3.5,2c-0.4,0.2-1.1,0.2-1.6,0l-3.5-2c-0.4-0.2-0.4-0.6,0-0.9l3.5-2c0.4-0.2,1.1-0.2,1.6,0l3.5,2
			C90.5,129.8,90.5,130.2,90.1,130.5z"/>
		<path class="st2" d="M96.5,134.1l-3.5,2c-0.4,0.2-1.1,0.2-1.6,0l-3.5-2c-0.4-0.2-0.4-0.6,0-0.9l3.5-2c0.4-0.2,1.1-0.2,1.6,0l3.5,2
			C97,133.5,97,133.9,96.5,134.1z"/>
		<path class="st2" d="M94.4,137.8c-0.4-0.2-0.4-0.6,0-0.9l3.5-2c0.4-0.2,1.1-0.2,1.6,0l3.5,2c0.4,0.2,0.4,0.6,0,0.9l-3.5,2
			c-0.4,0.2-1.1,0.2-1.6,0L94.4,137.8z"/>
		<path class="st2" d="M100.8,141.5c-0.4-0.2-0.4-0.6,0-0.9l3.5-2c0.4-0.2,1.1-0.2,1.6,0l3.5,2c0.4,0.2,0.4,0.6,0,0.9l-3.5,2
			c-0.4,0.2-1.1,0.2-1.6,0L100.8,141.5z"/>
		<path class="st2" d="M110.3,146.9l-3.5-2c-0.4-0.2-0.4-0.6,0-0.9l3.5-2c0.4-0.2,1.1-0.2,1.6,0l3.5,2c0.4,0.2,0.4,0.6,0,0.9l-3.5,2
			C111.5,147.2,110.8,147.2,110.3,146.9z"/>
		<path class="st2" d="M116.4,150.5l-3.5-2c-0.4-0.2-0.4-0.6,0-0.9l3.5-2c0.4-0.2,1.1-0.2,1.6,0l3.5,2c0.4,0.2,0.4,0.6,0,0.9l-3.5,2
			C117.5,150.8,116.8,150.8,116.4,150.5z"/>
		<path class="st2" d="M122.8,154l-3.5-2c-0.4-0.2-0.4-0.6,0-0.9l3.5-2c0.4-0.2,1.1-0.2,1.6,0l3.5,2c0.4,0.2,0.4,0.6,0,0.9l-3.5,2
			C124,154.3,123.3,154.3,122.8,154z"/>
		<path class="st2" d="M125.6,155.6c-0.4-0.2-0.4-0.6,0-0.9l3.5-2c0.4-0.2,1.1-0.2,1.6,0l3.5,2c0.4,0.2,0.4,0.6,0,0.9l-3.5,2
			c-0.4,0.2-1.1,0.2-1.6,0L125.6,155.6z"/>
		<path class="st2" d="M135.6,161.4l-3.9-2.2c-0.4-0.2-0.4-0.6,0-0.9l3.5-2c0.4-0.2,1.1-0.2,1.6,0l3.9,2.2c0.4,0.2,0.4,0.6,0,0.9
			l-3.5,2C136.8,161.7,136.1,161.7,135.6,161.4z"/>
		<path class="st2" d="M144.8,166.6l-6.5-3.6c-0.4-0.2-0.4-0.6,0-0.9l3.5-2c0.4-0.2,1.1-0.2,1.6,0l6.5,3.6c0.4,0.2,0.4,0.6,0,0.9
			l-3.5,2C145.9,166.8,145.2,166.8,144.8,166.6z"/>
		<path class="st2" d="M63.2,127.2l-3.5-2c-0.4-0.2-0.4-0.6,0-0.9l3.5-2c0.4-0.2,1.1-0.2,1.6,0l3.5,2c0.4,0.2,0.4,0.6,0,0.9l-3.5,2
			C64.3,127.5,63.6,127.5,63.2,127.2z"/>
		<path class="st2" d="M69.6,130.9l-3.5-2c-0.4-0.2-0.4-0.6,0-0.9l3.5-2c0.4-0.2,1.1-0.2,1.6,0l3.5,2c0.4,0.2,0.4,0.6,0,0.9l-3.5,2
			C70.8,131.2,70.1,131.2,69.6,130.9z"/>
		<path class="st2" d="M72.4,131.6l3.5-2c0.4-0.2,1.1-0.2,1.6,0l3.5,2c0.4,0.2,0.4,0.6,0,0.9l-3.5,2c-0.4,0.2-1.1,0.2-1.6,0l-3.5-2
			C72,132.3,72,131.9,72.4,131.6z"/>
		<path class="st2" d="M78.9,135.3l3.5-2c0.4-0.2,1.1-0.2,1.6,0l3.5,2c0.4,0.2,0.4,0.6,0,0.9l-3.5,2c-0.4,0.2-1.1,0.2-1.6,0l-3.5-2
			C78.4,135.9,78.4,135.5,78.9,135.3z"/>
		<path class="st2" d="M85.6,140c-0.4-0.2-0.4-0.6,0-0.9l3.5-2c0.4-0.2,1.1-0.2,1.6,0l3.5,2c0.4,0.2,0.4,0.6,0,0.9l-3.5,2
			c-0.4,0.2-1.1,0.2-1.6,0L85.6,140z"/>
		<path class="st2" d="M92.5,143l3.5-2c0.4-0.2,1.1-0.2,1.6,0l3.5,2c0.4,0.2,0.4,0.6,0,0.9l-3.5,2c-0.4,0.2-1.1,0.2-1.6,0l-3.5-2
			C92.1,143.6,92.1,143.2,92.5,143z"/>
		<path class="st2" d="M98.9,146.7l3.5-2c0.4-0.2,1.1-0.2,1.6,0l3.5,2c0.4,0.2,0.4,0.6,0,0.9l-3.5,2c-0.4,0.2-1.1,0.2-1.6,0l-3.5-2
			C98.5,147.4,98.5,147,98.9,146.7z"/>
		<path class="st2" d="M105,150.4l3.5-2c0.4-0.2,1.1-0.2,1.6,0l3.5,2c0.4,0.2,0.4,0.6,0,0.9l-3.5,2c-0.4,0.2-1.1,0.2-1.6,0l-3.5-2
			C104.6,151,104.6,150.6,105,150.4z"/>
		<path class="st2" d="M111.4,153.9l3.5-2c0.4-0.2,1.1-0.2,1.6,0l3.5,2c0.4,0.2,0.4,0.6,0,0.9l-3.5,2c-0.4,0.2-1.1,0.2-1.6,0l-3.5-2
			C111,154.5,111,154.1,111.4,153.9z"/>
		<path class="st2" d="M121.2,160.3l-3.5-2c-0.4-0.2-0.4-0.6,0-0.9l3.5-2c0.4-0.2,1.1-0.2,1.6,0l3.5,2c0.4,0.2,0.4,0.6,0,0.9l-3.5,2
			C122.4,160.6,121.7,160.6,121.2,160.3z"/>
		<path class="st2" d="M127.8,164.2l-3.9-2.2c-0.4-0.2-0.4-0.6,0-0.9l3.5-2c0.4-0.2,1.1-0.2,1.6,0l3.9,2.2c0.4,0.2,0.4,0.6,0,0.9
			l-3.5,2C128.9,164.4,128.2,164.4,127.8,164.2z"/>
		<path class="st2" d="M140,170.2c-0.4,0.2-1.1,0.2-1.6,0l-7.7-4.3c-0.4-0.2-0.4-0.6,0-0.9l3.5-2c0.4-0.2,1.1-0.2,1.6,0l7.7,4.3
			c0.4,0.2,0.4,0.6,0,0.9L140,170.2z"/>
		<path class="st2" d="M54.9,116.8l6.5,3.6c0.4,0.2,0.4,0.6,0,0.9l-3.5,2c-0.4,0.2-1.1,0.2-1.6,0l-6.5-3.6c-0.4-0.2-0.4-0.6,0-0.9
			l3.5-2C53.7,116.6,54.4,116.6,54.9,116.8z"/>
		<path class="st2" d="M61.7,127.9l3.5,2c0.4,0.2,0.4,0.6,0,0.9l-3.5,2c-0.4,0.2-1.1,0.2-1.6,0l-3.5-2c-0.4-0.2-0.4-0.6,0-0.9l3.5-2
			C60.6,127.7,61.3,127.7,61.7,127.9z"/>
		<path class="st2" d="M68,131.5l3.5,2c0.4,0.2,0.4,0.6,0,0.9l-3.5,2c-0.4,0.2-1.1,0.2-1.6,0l-3.5-2c-0.4-0.2-0.4-0.6,0-0.9l3.5-2
			C66.9,131.3,67.6,131.3,68,131.5z"/>
		<path class="st2" d="M73.5,140.4l-3.5-2c-0.4-0.2-0.4-0.6,0-0.9l3.5-2c0.4-0.2,1.1-0.2,1.6,0l3.5,2c0.4,0.2,0.4,0.6,0,0.9l-3.5,2
			C74.6,140.7,73.9,140.7,73.5,140.4z"/>
		<path class="st2" d="M80.2,144.2l-3.5-2c-0.4-0.2-0.4-0.6,0-0.9l3.5-2c0.4-0.2,1.1-0.2,1.6,0l3.5,2c0.4,0.2,0.4,0.6,0,0.9l-3.5,2
			C81.3,144.5,80.6,144.5,80.2,144.2z"/>
		<path class="st2" d="M87.1,148.1l-3.5-2c-0.4-0.2-0.4-0.6,0-0.9l3.5-2c0.4-0.2,1.1-0.2,1.6,0l3.5,2c0.4,0.2,0.4,0.6,0,0.9l-3.5,2
			C88.3,148.3,87.6,148.3,87.1,148.1z"/>
		<path class="st2" d="M93.6,151.8l-3.5-2c-0.4-0.2-0.4-0.6,0-0.9l3.5-2c0.4-0.2,1.1-0.2,1.6,0l3.5,2c0.4,0.2,0.4,0.6,0,0.9l-3.5,2
			C94.7,152.1,94,152.1,93.6,151.8z"/>
		<path class="st2" d="M99.7,155.5l-3.5-2c-0.4-0.2-0.4-0.6,0-0.9l3.5-2c0.4-0.2,1.1-0.2,1.6,0l3.5,2c0.4,0.2,0.4,0.6,0,0.9l-3.5,2
			C100.8,155.7,100.1,155.7,99.7,155.5z"/>
		<path class="st2" d="M106.1,159l-3.5-2c-0.4-0.2-0.4-0.6,0-0.9l3.5-2c0.4-0.2,1.1-0.2,1.6,0l3.5,2c0.4,0.2,0.4,0.6,0,0.9l-3.5,2
			C107.2,159.2,106.5,159.2,106.1,159z"/>
		<path class="st2" d="M112.4,162.6l-3.5-2c-0.4-0.2-0.4-0.6,0-0.9l3.5-2c0.4-0.2,1.1-0.2,1.6,0l3.5,2c0.4,0.2,0.4,0.6,0,0.9l-3.5,2
			C113.5,162.8,112.8,162.8,112.4,162.6z"/>
		<path class="st2" d="M120.1,161.3l3.9,2.2c0.4,0.2,0.4,0.6,0,0.9l-3.5,2c-0.4,0.2-1.1,0.2-1.6,0l-3.9-2.2c-0.4-0.2-0.4-0.6,0-0.9
			l3.5-2C118.9,161,119.6,161,120.1,161.3z"/>
		<path class="st2" d="M126.9,165.1l10.3,5.8c0.4,0.2,0.4,0.6,0,0.9l-3.5,2c-0.4,0.2-1.1,0.2-1.6,0l-10.3-5.8
			c-0.4-0.2-0.4-0.6,0-0.9l3.5-2C125.7,164.9,126.4,164.9,126.9,165.1z"/>
		<path class="st2" d="M48.5,120.5l10.1,5.7c0.4,0.2,0.4,0.6,0,0.9l-3.5,2c-0.4,0.2-1.1,0.2-1.6,0l-10.1-5.7c-0.4-0.2-0.4-0.6,0-0.9
			l3.5-2C47.4,120.2,48.1,120.2,48.5,120.5z"/>
		<path class="st2" d="M114.6,165.2l3.5,2c0.4,0.2,0.4,0.6,0,0.9l-3.5,2c-0.4,0.2-1.1,0.2-1.6,0l-3.5-2c-0.4-0.2-0.4-0.6,0-0.9
			l3.5-2C113.4,165,114.1,165,114.6,165.2z"/>
		<path class="st2" d="M120.9,168.8l3.5,2c0.4,0.2,0.4,0.6,0,0.9l-3.5,2c-0.4,0.2-1.1,0.2-1.6,0l-3.5-2c-0.4-0.2-0.4-0.6,0-0.9
			l3.5-2C119.7,168.6,120.4,168.6,120.9,168.8z"/>
		<path class="st2" d="M127,172.4l3.9,2.2c0.4,0.2,0.4,0.6,0,0.9l-3.5,2c-0.4,0.2-1.1,0.2-1.6,0l-3.9-2.2c-0.4-0.2-0.4-0.6,0-0.9
			l3.5-2C125.9,172.2,126.6,172.2,127,172.4z"/>
		<path class="st2" d="M105.2,159.9l6.5,3.6c0.4,0.2,0.4,0.6,0,0.9l-3.5,2c-0.4,0.2-1.1,0.2-1.6,0l-6.5-3.6c-0.4-0.2-0.4-0.6,0-0.9
			l3.5-2C104,159.7,104.7,159.7,105.2,159.9z"/>
		<path class="st2" d="M71.8,141l30.1,17.1c0.4,0.2,0.4,0.6,0,0.9l-3.5,2c-0.4,0.2-1.1,0.2-1.6,0l-30.1-17.1c-0.4-0.2-0.4-0.6,0-0.9
			l3.5-2C70.6,140.8,71.3,140.8,71.8,141z"/>
		<path class="st2" d="M62,135.6l6.5,3.6c0.4,0.2,0.4,0.6,0,0.9l-3.5,2c-0.4,0.2-1.1,0.2-1.6,0l-6.5-3.6c-0.4-0.2-0.4-0.6,0-0.9
			l3.5-2C60.9,135.4,61.6,135.4,62,135.6z"/>
		<path class="st2" d="M55.2,131.8l3.5,2c0.4,0.2,0.4,0.6,0,0.9l-3.5,2c-0.4,0.2-1.1,0.2-1.6,0l-3.5-2c-0.4-0.2-0.4-0.6,0-0.9l3.5-2
			C54,131.6,54.7,131.6,55.2,131.8z"/>
		<path class="st2" d="M46.5,129.2l-2.4-1.4c-0.4-0.2-0.4-0.6,0-0.8l0.5-0.3c0.4-0.2,1-0.2,1.4,0l2.4,1.4c0.4,0.2,0.4,0.6,0,0.8
			l-0.5,0.3C47.5,129.4,46.9,129.4,46.5,129.2z"/>
		<path class="st2" d="M43.1,128.3l2.4,1.4c0.4,0.2,0.4,0.6,0,0.8l-0.5,0.3c-0.4,0.2-1,0.2-1.4,0l-2.4-1.4c-0.4-0.2-0.4-0.6,0-0.8
			l0.5-0.3C42,128.1,42.7,128.1,43.1,128.3z"/>
		<path class="st2" d="M38.9,126l2.2,1.3c0.4,0.2,0.4,0.6,0,0.8l-0.5,0.3c-0.4,0.2-1,0.2-1.4,0l-2.2-1.3c-0.4-0.2-0.4-0.6,0-0.8
			l0.5-0.3C37.9,125.8,38.5,125.8,38.9,126z"/>
		<path class="st2" d="M47.3,130.8l2.3,1.3c0.4,0.2,0.4,0.6,0,0.8l-0.5,0.3c-0.4,0.2-1,0.2-1.4,0l-2.3-1.3c-0.4-0.2-0.4-0.6,0-0.8
			l0.5-0.3C46.3,130.6,46.9,130.6,47.3,130.8z"/>
	</g>
	<path d="M170.4,83.4l-89-51.1c-2.5-1.5-6-0.9-7.7,1.9c-0.1,0.2-0.3,0.5-0.4,0.7c-0.1,0.3-0.2,0.6-0.3,0.9l0.1,0.1
		c0,0.2-0.1,0.5-0.1,0.7v68.7l100,52.2v0l1.7-0.5V90.9C174.8,87.8,173.1,84.9,170.4,83.4z M112.4,50.3l17.5,10l17.5,10.1l17.5,10.1
		l-17.5-10l-17.5-10L112.4,50.3l-17.5-10L112.4,50.3z M168.5,152l-90-51.8V39.7l90,52V152z"/>
</g>
<g id="screen_x5F_logo">
	<g>
		<path d="M109.1,98.1c0-0.4-0.1-1.1-0.2-1.5l-4.8-12.5c-0.2-0.4-0.5-0.5-0.8-0.1L91.1,98.2c-0.3,0.3-0.2,0.8,0.2,1l10.8,5.9
			c0.4,0.2,1,0.5,1.4,0.8l0.8,0.4c0.4,0.2,0.9,0.1,1.2-0.2l3-3.5c0.3-0.3,0.5-0.9,0.5-1.4L109.1,98.1z M103.4,88.5
			c-0.4-0.2-0.6-0.7-0.5-1.1l0.7-2.5c0.1-0.4,0.3-0.4,0.5,0l1.6,4.3c0.2,0.4,0,0.6-0.4,0.4L103.4,88.5z"/>
	</g>
	<g>
		<path d="M124.1,109.2c0-0.4-0.3-1-0.6-1.2l-0.9-0.5c-0.4-0.2-0.9-0.6-1.1-0.8c-0.2-0.2-0.3-1.2-0.3-1.6l0.4-8.6c0-0.4,0-0.8,0-0.8
			s0-0.1,0-0.2c0-0.1,0.4-0.5,0.7-0.8l2.8-2.6c0.3-0.3,0.6-0.9,0.6-1.3l0.6-10.9c0-0.4,0.1-0.8,0.1-0.9c0-0.1,0.3,0.5,0.4,0.9
			l5.8,15.2c0.2,0.4,0.3,0.8,0.3,0.8c0,0.1,0,0.2,0,0.4c0,0.1-0.4,0.5-0.7,0.8l-3.6,3.3c-0.3,0.3-0.6,0.9-0.6,1.3l-0.3,6.9
			c0,0.4-0.1,0.9-0.2,1.1c-0.1,0.2-0.9-0.1-1.3-0.3l-1-0.5c-0.4-0.2-0.7,0-0.7,0.4l-0.4,7c0,0.4,0.3,1,0.6,1.2l20.7,11.4
			c0.4,0.2,0.6,0,0.4-0.4l-19.2-50.1c-0.2-0.4-0.5-0.5-0.8-0.1L110,96.9c-0.3,0.3-0.5,0.9-0.5,1.4l-0.2,3.1c0,0.4,0.1,1.1,0.2,1.5
			l2.8,7.3c0.2,0.4,0.6,0.9,1,1.1l0.8,0.4c0.4,0.2,1,0.5,1.4,0.8l7.5,4.1c0.4,0.2,0.7,0,0.7-0.4L124.1,109.2z"/>
	</g>
</g>
</svg>
