<?xml version="1.0" encoding="utf-8"?>
<!-- Generator: Adobe Illustrator 24.2.0, SVG Export Plug-In . SVG Version: 6.00 Build 0)  -->
<svg version="1.1" id="Layer_1" xmlns="http://www.w3.org/2000/svg" xmlns:xlink="http://www.w3.org/1999/xlink" x="0px" y="0px"
	 viewBox="0 0 194 288" style="enable-background:new 0 0 194 288;" xml:space="preserve">
<g>
	<path d="M41.3,223.7c0.7,0.3,1.2,0.7,1.7,1.2c0.4,0.4,0.7,0.9,0.9,1.5c0.2,0.5,0.3,1.2,0.3,1.9c0,0.8-0.2,1.7-0.6,2.5
		c-0.4,0.8-1.1,1.4-2.1,1.7c0.8,0.3,1.4,0.8,1.7,1.4s0.5,1.5,0.5,2.8v1.2c0,0.8,0,1.4,0.1,1.6c0.1,0.5,0.3,0.8,0.7,1v0.4h-4.1
		c-0.1-0.4-0.2-0.7-0.2-0.9c-0.1-0.5-0.1-1-0.2-1.5l0-1.6c0-1.1-0.2-1.9-0.6-2.3c-0.4-0.4-1.1-0.6-2.1-0.6h-3.6v6.9h-3.6v-17.7h8.5
		C39.7,223.3,40.6,223.4,41.3,223.7z M33.7,226.3v4.7h4c0.8,0,1.4-0.1,1.8-0.3c0.7-0.3,1-1,1-2c0-1.1-0.3-1.8-1-2.2
		c-0.4-0.2-0.9-0.3-1.7-0.3H33.7z"/>
	<path d="M51.1,240.9h-3.7v-17.7h3.7V240.9z"/>
	<path d="M64.9,223.3h3.8l-6,17.7h-3.5l-6-17.7h3.9l3.8,13.4L64.9,223.3z"/>
	<path d="M84,226.4h-9.4v3.8h8.6v3.1h-8.6v4.5h9.8v3.2H71v-17.7h13V226.4z"/>
	<path d="M98.6,223.7c0.7,0.3,1.2,0.7,1.7,1.2c0.4,0.4,0.7,0.9,0.9,1.5c0.2,0.5,0.3,1.2,0.3,1.9c0,0.8-0.2,1.7-0.6,2.5
		c-0.4,0.8-1.1,1.4-2.1,1.7c0.8,0.3,1.4,0.8,1.7,1.4c0.3,0.6,0.5,1.5,0.5,2.8v1.2c0,0.8,0,1.4,0.1,1.6c0.1,0.5,0.3,0.8,0.7,1v0.4
		h-4.1c-0.1-0.4-0.2-0.7-0.2-0.9c-0.1-0.5-0.1-1-0.2-1.5l0-1.6c0-1.1-0.2-1.9-0.6-2.3c-0.4-0.4-1.1-0.6-2.1-0.6H91v6.9h-3.6v-17.7
		h8.5C97,223.3,98,223.4,98.6,223.7z M91,226.3v4.7h4c0.8,0,1.4-0.1,1.8-0.3c0.7-0.3,1-1,1-2c0-1.1-0.3-1.8-1-2.2
		c-0.4-0.2-0.9-0.3-1.7-0.3H91z"/>
	<path d="M117.9,223.3v3.1h-5.3v14.5h-3.7v-14.5h-5.3v-3.1H117.9z"/>
	<path d="M133.1,226.4h-9.4v3.8h8.6v3.1h-8.6v4.5h9.8v3.2h-13.4v-17.7h13V226.4z"/>
	<path d="M139.2,240.9h-4.3l5.7-9l-5.4-8.7h4.4l3.2,5.8l3.2-5.8h4.3l-5.4,8.5l5.7,9.1h-4.5l-3.4-6L139.2,240.9z"/>
	<path d="M165.6,223.3v3.1h-5.3v14.5h-3.7v-14.5h-5.3v-3.1H165.6z"/>
</g>
<g id="Outline">
	<path d="M83.4,76.8l-2.8-1.3c-1.2,2.7-3.4,4.9-6.1,6.1l1.3,2.8C79.2,83,81.9,80.2,83.4,76.8z"/>
	<path d="M91.2,78l-3-0.9c-1.8,5.8-6.4,10.3-12.2,12.2l0.9,3C83.7,90.1,89,84.8,91.2,78z"/>
	<path d="M95.7,78.5c-2.2,9-9.2,16.1-18.3,18.3l0.7,3c10.2-2.5,18.1-10.4,20.6-20.6L95.7,78.5z"/>
	<path d="M76.9,71.7c0-3.4-2.8-6.2-6.2-6.2c-1.1,0-2.2,0.3-3.2,0.9L65,63.9l5.1-5.1c0.6-0.6,0.6-1.6,0-2.2L59.6,46l2.5-2.5l4.4,4.4
		c0.6,0.6,1.6,0.6,2.2,0L92,24.4c0.6-0.6,0.6-1.6,0-2.2L76.4,6.6c-0.6-0.6-1.6-0.6-2.2,0L50.8,30c-0.6,0.6-0.6,1.6,0,2.2l4.4,4.4
		l-2.5,2.5l-9-9c-4.1-4-10.7-4-14.7,0.1c-4,4-4,10.5,0,14.6l9,9l-2.5,2.5l-4.4-4.4c-0.6-0.6-1.6-0.6-2.2,0L5.5,75.3
		c-0.6,0.6-0.6,1.6,0,2.2l15.6,15.6c0.6,0.6,1.6,0.6,2.2,0l23.4-23.4c0.6-0.6,0.6-1.6,0-2.2l-4.4-4.4l2.5-2.5l10.6,10.6
		c0.6,0.6,1.6,0.6,2.2,0l5.1-5.1l2.4,2.4c-0.6,1-0.9,2-0.9,3.2c0,3.4,2.8,6.2,6.2,6.2S76.9,75.2,76.9,71.7z M67.5,44.5l-5.6-5.6
		l5.6-5.6l5.6,5.6L67.5,44.5z M75.3,36.7l-5.6-5.6l5.6-5.6l5.6,5.6L75.3,36.7z M88.7,23.3l-5.6,5.6l-5.6-5.6l5.6-5.6L88.7,23.3z
		 M75.3,9.9l5.6,5.6l-5.6,5.6l-5.6-5.6L75.3,9.9z M67.5,17.7l5.6,5.6l-5.6,5.6l-5.6-5.6L67.5,17.7z M54.1,31.1l5.6-5.6l5.6,5.6
		l-5.6,5.6L54.1,31.1z M57.4,38.8l2.5,2.5l-2.5,2.5l-2.5-2.5L57.4,38.8z M31.2,42.5c-2.8-2.8-2.8-7.4,0-10.3c2.8-2.8,7.4-2.8,10.3,0
		l0.5,0.5L31.6,43L31.2,42.5z M30.1,55.2l5.6,5.6l-5.6,5.6l-5.6-5.6L30.1,55.2z M22.3,63l5.6,5.6l-5.6,5.6l-5.6-5.6L22.3,63z
		 M8.8,76.4l5.6-5.6l5.6,5.6L14.4,82L8.8,76.4z M22.3,89.8l-5.6-5.6l5.6-5.6l5.6,5.6L22.3,89.8z M30.1,82l-5.6-5.6l5.6-5.6l5.6,5.6
		L30.1,82z M43.5,68.6l-5.6,5.6l-5.6-5.6l5.6-5.6L43.5,68.6z M40.2,60.9l-2.5-2.5l2.5-2.5l2.5,2.5L40.2,60.9z M56.6,67.9L33.8,45.2
		l10.3-10.3l22.8,22.8L56.6,67.9z M70.6,74.8c-1.7,0-3.1-1.4-3.1-3.1s1.4-3.1,3.1-3.1s3.1,1.4,3.1,3.1S72.4,74.8,70.6,74.8z"/>
</g>
<g id="outline">
	<path d="M160.5,188.2h-3.1V185h3.1V188.2z"/>
	<path d="M154.3,188.2h-3.1V185h3.1V188.2z"/>
	<path d="M166.8,194.4h-3.1v-3.1h3.1V194.4z"/>
	<path d="M160.5,194.4h-3.1v-3.1h3.1V194.4z"/>
	<path d="M154.3,194.4h-3.1v-3.1h3.1V194.4z"/>
	<path d="M148.1,194.4h-3.1v-3.1h3.1V194.4z"/>
	<path d="M160.5,200.6h-3.1v-3.1h3.1V200.6z"/>
	<path d="M154.3,200.6h-3.1v-3.1h3.1V200.6z"/>
	<path d="M168.3,169.4v-15.6c0-0.9-0.7-1.6-1.6-1.6h-21.8c-0.9,0-1.6,0.7-1.6,1.6v15.6c0,0.9,0.7,1.6,1.6,1.6h21.8
		C167.6,171,168.3,170.3,168.3,169.4z M165.2,167.9h-18.7v-12.5h18.7V167.9z"/>
	<path d="M166.8,177.2h-4.7v-3.1h4.7V177.2z"/>
	<path d="M159,177.2h-6.2v-3.1h6.2V177.2z"/>
	<path d="M149.6,177.2h-4.7v-3.1h4.7V177.2z"/>
	<path d="M179.2,167.9v-6.2c0-0.9-0.7-1.6-1.6-1.6h-3.1v-1.6h3.1c0.9,0,1.6-0.7,1.6-1.6v-6.2c0-0.9-0.7-1.6-1.6-1.6h-3.1v-1.6
		c0-0.9-0.7-1.6-1.6-1.6h-1.6v-4.7c0-0.9-0.7-1.6-1.6-1.6V118c0-2.6-2.1-4.7-4.7-4.7c-2.6,0-4.7,2.1-4.7,4.7v21.8
		c-0.9,0-1.6,0.7-1.6,1.6v4.7h-3.1V143c0-0.9-0.7-1.6-1.6-1.6h-4.7c0-0.9-0.7-1.6-1.6-1.6h-6.2c-0.9,0-1.6,0.7-1.6,1.6v4.7h-1.6
		c-0.9,0-1.6,0.7-1.6,1.6v26.5c0,0.2,0.1,0.5,0.2,0.7l1.4,2.8v25c0,2.4,1.9,4.3,4.3,4.3h25.7c2.4,0,4.3-1.9,4.3-4.3v-25l1.4-2.8
		c0.1-0.2,0.2-0.5,0.2-0.7v-4.7h3.1C178.5,169.4,179.2,168.8,179.2,167.9z M141.8,181.9h28.1v20.7c0,0.6-0.5,1.2-1.2,1.2H143
		c-0.6,0-1.2-0.5-1.2-1.2V181.9z M146.5,146.1h-3.1V143h3.1V146.1z M152.7,146.1h-3.1v-1.6h3.1V146.1z M166.8,139.8h-3.1V118
		c0-0.9,0.7-1.6,1.6-1.6c0.9,0,1.6,0.7,1.6,1.6V139.8z M168.3,146.1h-6.2V143h6.2V146.1z M171.4,173.8l-1.4,2.8
		c-0.1,0.2-0.2,0.5-0.2,0.7v1.6h-28.1v-1.6c0-0.2-0.1-0.5-0.2-0.7l-1.4-2.8v-24.6h31.2V173.8z M174.6,155.4v-3.1h1.6v3.1H174.6z
		 M176.1,166.3h-1.6v-3.1h1.6V166.3z"/>
	<path d="M162.1,163.2H159v-3.1h3.1V163.2z"/>
	<path d="M155.9,163.2h-6.2v-3.1h6.2V163.2z"/>
	<path d="M137.2,119.6v-3.1c-14.6,0-26.5,11.9-26.5,26.5c0,6.2,2.2,12.2,6.1,16.9l2.4-2c-3.5-4.2-5.4-9.5-5.4-14.9
		C113.8,130,124.3,119.6,137.2,119.6z"/>
	<path d="M120,143c0-9.5,7.7-17.1,17.1-17.1v-3.1c-4.8,0-9.5,1.7-13.2,4.9c-8.5,7.3-9.4,20.1-2.2,28.6l2.4-2
		C121.5,151,120,147.1,120,143L120,143z"/>
	<path d="M137.2,132v-3.1c-3.5,0-6.9,1.3-9.5,3.7c-5.7,5.2-6.1,14.1-0.8,19.8l2.3-2.1c-1.9-2-2.9-4.6-2.9-7.4
		C126.3,136.9,131.1,132.1,137.2,132z"/>
</g>
</svg>
