<?xml version="1.0" encoding="utf-8"?>
<!-- Generator: Adobe Illustrator 24.2.0, SVG Export Plug-In . SVG Version: 6.00 Build 0)  -->
<svg version="1.1" id="Layer_1" xmlns="http://www.w3.org/2000/svg" xmlns:xlink="http://www.w3.org/1999/xlink" x="0px" y="0px"
	 viewBox="0 0 194 288" style="enable-background:new 0 0 194 288;" xml:space="preserve">
<style type="text/css">
	.st0{font-family:'Helvetica-Bold';}
	.st1{font-size:21.8313px;}
	.st2{font-family:'Helvetica-Light';}
</style>
<text transform="matrix(1 0 0 1 20.5686 216.9293)"><tspan x="0" y="0" class="st0 st1">SERVERLESS </tspan><tspan x="13.4" y="26.2" class="st0 st1">NOTES APP</tspan><tspan x="32.7" y="52.4" class="st2 st1">Frontend</tspan></text>
<g>
	<g>
		<g>
			<path d="M143.7,36H97c-2.6,0-4.7,2.1-4.7,4.7c0,2.6,2.1,4.7,4.7,4.7h46.7c7.7,0,14,6.3,14,14v93.4c0,7.7-6.3,14-14,14H50.3
				c-7.7,0-14-6.3-14-14v-37.4c0-2.6-2.1-4.7-4.7-4.7s-4.7,2.1-4.7,4.7v37.4c0,12.9,10.5,23.4,23.4,23.4h93.4
				c12.9,0,23.4-10.5,23.4-23.4V59.4C167.1,46.5,156.6,36,143.7,36z"/>
		</g>
	</g>
	<g>
		<g>
			<path d="M110.4,143.1H83.6c-14.7,0-26.7,1.9-26.7,4.3c0,2.4,12,4.3,26.7,4.3h26.7c14.7,0,26.7-1.9,26.7-4.3
				C137.1,145,125.1,143.1,110.4,143.1z"/>
		</g>
	</g>
	<g>
		<g>
			<path d="M110.4,117.9H83.6c-14.7,0-26.7,1.9-26.7,4.3s12,4.3,26.7,4.3h26.7c14.7,0,26.7-1.9,26.7-4.3S125.1,117.9,110.4,117.9z"
				/>
		</g>
	</g>
	<g>
		<g>
			<path d="M110.4,91.3H83.6c-14.7,0-26.7,1.9-26.7,4.3s12,4.3,26.7,4.3h26.7c14.7,0,26.7-1.9,26.7-4.3S125.1,91.3,110.4,91.3z"/>
		</g>
	</g>
	<g>
		<g>
			<path d="M110.4,63.1H83.6c-14.7,0-26.7,1.9-26.7,4.3c0,2.4,12,4.3,26.7,4.3h26.7c14.7,0,26.7-1.9,26.7-4.3S125.1,63.1,110.4,63.1
				z"/>
		</g>
	</g>
</g>
</svg>
