<?xml version="1.0" encoding="utf-8"?>
<!-- Generator: Adobe Illustrator 24.2.0, SVG Export Plug-In . SVG Version: 6.00 Build 0)  -->
<svg version="1.1" id="Layer_1" xmlns="http://www.w3.org/2000/svg" xmlns:xlink="http://www.w3.org/1999/xlink" x="0px" y="0px"
	 viewBox="0 0 194 288" style="enable-background:new 0 0 194 288;" xml:space="preserve">
<style type="text/css">
	.st0{enable-background:new    ;}
	.st1{font-family:'Helvetica-Bold';}
	.st2{font-size:24.5564px;}
	.st3{font-family:'Helvetica-Light';}
	.st4{fill:none;}
</style>
<text transform="matrix(1 0 0 1 18.5764 240.9406)" class="st0"><tspan x="0" y="0" class="st1 st2">Portfolio-App</tspan><tspan x="29.3" y="29.5" class="st3 st2">Backend</tspan></text>
<line class="st4" x1="64.9" y1="76.6" x2="129.1" y2="12.5"/>
<g>
	<g>
		<g>
			<path d="M148.8,120.5c3.2,0,5.8-2.6,5.8-5.8v-23c0-3.2-2.6-5.8-5.8-5.8H45.2c-3.2,0-5.8,2.6-5.8,5.8v23c0,3.2,2.6,5.8,5.8,5.8H51
				v5.8h-5.8c-3.2,0-5.8,2.6-5.8,5.8v23c0,3.2,2.6,5.8,5.8,5.8H51v5.8h-5.8c-3.2,0-5.8,2.6-5.8,5.8v23c0,3.2,2.6,5.8,5.8,5.8h103.6
				c3.2,0,5.8-2.6,5.8-5.8v-23c0-3.2-2.6-5.8-5.8-5.8H143v-5.8h5.8c3.2,0,5.8-2.6,5.8-5.8v-23c0-3.2-2.6-5.8-5.8-5.8H143v-5.8H148.8
				z M148.8,170.4c1.1,0,1.9,0.9,1.9,1.9v23c0,1.1-0.9,1.9-1.9,1.9H45.2c-1.1,0-1.9-0.9-1.9-1.9v-23c0-1.1,0.9-1.9,1.9-1.9H148.8z
				 M54.8,166.5v-5.8h3.8v5.8H54.8z M62.5,166.5v-5.8h69.1v5.8H62.5z M135.4,166.5v-5.8h3.8v5.8H135.4z M148.8,130.1
				c1.1,0,1.9,0.9,1.9,1.9v23c0,1.1-0.9,1.9-1.9,1.9H45.2c-1.1,0-1.9-0.9-1.9-1.9v-23c0-1.1,0.9-1.9,1.9-1.9H148.8z M54.8,126.3
				v-5.8h3.8v5.8H54.8z M62.5,126.3v-5.8h69.1v5.8H62.5z M135.4,126.3v-5.8h3.8v5.8H135.4z M45.2,116.7c-1.1,0-1.9-0.9-1.9-1.9v-23
				c0-1.1,0.9-1.9,1.9-1.9h103.6c1.1,0,1.9,0.9,1.9,1.9v23c0,1.1-0.9,1.9-1.9,1.9H45.2z"/>
		</g>
	</g>
	<g>
		<g>
			<path d="M100.8,101.3H62.1c-1.1-3-4.3-4.6-7.3-3.5s-4.6,4.3-3.5,7.3s4.3,4.6,7.3,3.5c1.6-0.6,2.9-1.9,3.5-3.5h38.7
				c1.1,0,1.9-0.9,1.9-1.9C102.8,102.2,101.9,101.3,100.8,101.3z M56.7,105.2c-1.1,0-1.9-0.9-1.9-1.9c0-1.1,0.9-1.9,1.9-1.9
				s1.9,0.9,1.9,1.9C58.6,104.3,57.8,105.2,56.7,105.2z"/>
		</g>
	</g>
	<g>
		<g>
			<rect x="123.9" y="93.6" width="3.8" height="3.8"/>
		</g>
	</g>
	<g>
		<g>
			<rect x="131.5" y="93.6" width="3.8" height="3.8"/>
		</g>
	</g>
	<g>
		<g>
			<rect x="139.2" y="93.6" width="3.8" height="3.8"/>
		</g>
	</g>
	<g>
		<g>
			<rect x="116.2" y="93.6" width="3.8" height="3.8"/>
		</g>
	</g>
	<g>
		<g>
			<rect x="108.5" y="93.6" width="3.8" height="3.8"/>
		</g>
	</g>
	<g>
		<g>
			<rect x="123.9" y="101.3" width="3.8" height="3.8"/>
		</g>
	</g>
	<g>
		<g>
			<rect x="131.5" y="101.3" width="3.8" height="3.8"/>
		</g>
	</g>
	<g>
		<g>
			<rect x="139.2" y="101.3" width="3.8" height="3.8"/>
		</g>
	</g>
	<g>
		<g>
			<rect x="116.2" y="101.3" width="3.8" height="3.8"/>
		</g>
	</g>
	<g>
		<g>
			<rect x="108.5" y="101.3" width="3.8" height="3.8"/>
		</g>
	</g>
	<g>
		<g>
			<rect x="123.9" y="109" width="3.8" height="3.8"/>
		</g>
	</g>
	<g>
		<g>
			<rect x="131.5" y="109" width="3.8" height="3.8"/>
		</g>
	</g>
	<g>
		<g>
			<rect x="139.2" y="109" width="3.8" height="3.8"/>
		</g>
	</g>
	<g>
		<g>
			<rect x="116.2" y="109" width="3.8" height="3.8"/>
		</g>
	</g>
	<g>
		<g>
			<rect x="108.5" y="109" width="3.8" height="3.8"/>
		</g>
	</g>
	<g>
		<g>
			<path d="M100.8,141.6H62.1c-1.1-3-4.3-4.6-7.3-3.5c-3,1.1-4.6,4.3-3.5,7.3c1.1,3,4.3,4.6,7.3,3.5c1.6-0.6,2.9-1.9,3.5-3.5h38.7
				c1.1,0,1.9-0.9,1.9-1.9S101.9,141.6,100.8,141.6z M56.7,145.4c-1.1,0-1.9-0.9-1.9-1.9c0-1.1,0.9-1.9,1.9-1.9s1.9,0.9,1.9,1.9
				C58.6,144.6,57.8,145.4,56.7,145.4z"/>
		</g>
	</g>
	<g>
		<g>
			<rect x="123.9" y="133.9" width="3.8" height="3.8"/>
		</g>
	</g>
	<g>
		<g>
			<rect x="131.5" y="133.9" width="3.8" height="3.8"/>
		</g>
	</g>
	<g>
		<g>
			<rect x="139.2" y="133.9" width="3.8" height="3.8"/>
		</g>
	</g>
	<g>
		<g>
			<rect x="116.2" y="133.9" width="3.8" height="3.8"/>
		</g>
	</g>
	<g>
		<g>
			<rect x="108.5" y="133.9" width="3.8" height="3.8"/>
		</g>
	</g>
	<g>
		<g>
			<rect x="123.9" y="141.6" width="3.8" height="3.8"/>
		</g>
	</g>
	<g>
		<g>
			<rect x="131.5" y="141.6" width="3.8" height="3.8"/>
		</g>
	</g>
	<g>
		<g>
			<rect x="139.2" y="141.6" width="3.8" height="3.8"/>
		</g>
	</g>
	<g>
		<g>
			<rect x="116.2" y="141.6" width="3.8" height="3.8"/>
		</g>
	</g>
	<g>
		<g>
			<rect x="108.5" y="141.6" width="3.8" height="3.8"/>
		</g>
	</g>
	<g>
		<g>
			<rect x="123.9" y="149.3" width="3.8" height="3.8"/>
		</g>
	</g>
	<g>
		<g>
			<rect x="131.5" y="149.3" width="3.8" height="3.8"/>
		</g>
	</g>
	<g>
		<g>
			<rect x="139.2" y="149.3" width="3.8" height="3.8"/>
		</g>
	</g>
	<g>
		<g>
			<rect x="116.2" y="149.3" width="3.8" height="3.8"/>
		</g>
	</g>
	<g>
		<g>
			<rect x="108.5" y="149.3" width="3.8" height="3.8"/>
		</g>
	</g>
	<g>
		<g>
			<path d="M100.8,181.9H62.1c-1.1-3-4.3-4.6-7.3-3.5s-4.6,4.3-3.5,7.3s4.3,4.6,7.3,3.5c1.6-0.6,2.9-1.9,3.5-3.5h38.7
				c1.1,0,1.9-0.9,1.9-1.9C102.8,182.8,101.9,181.9,100.8,181.9z M56.7,185.7c-1.1,0-1.9-0.9-1.9-1.9c0-1.1,0.9-1.9,1.9-1.9
				s1.9,0.9,1.9,1.9C58.6,184.9,57.8,185.7,56.7,185.7z"/>
		</g>
	</g>
	<g>
		<g>
			<rect x="123.9" y="174.2" width="3.8" height="3.8"/>
		</g>
	</g>
	<g>
		<g>
			<rect x="131.5" y="174.2" width="3.8" height="3.8"/>
		</g>
	</g>
	<g>
		<g>
			<rect x="139.2" y="174.2" width="3.8" height="3.8"/>
		</g>
	</g>
	<g>
		<g>
			<rect x="116.2" y="174.2" width="3.8" height="3.8"/>
		</g>
	</g>
	<g>
		<g>
			<rect x="108.5" y="174.2" width="3.8" height="3.8"/>
		</g>
	</g>
	<g>
		<g>
			<rect x="123.9" y="181.9" width="3.8" height="3.8"/>
		</g>
	</g>
	<g>
		<g>
			<rect x="131.5" y="181.9" width="3.8" height="3.8"/>
		</g>
	</g>
	<g>
		<g>
			<rect x="139.2" y="181.9" width="3.8" height="3.8"/>
		</g>
	</g>
	<g>
		<g>
			<rect x="116.2" y="181.9" width="3.8" height="3.8"/>
		</g>
	</g>
	<g>
		<g>
			<rect x="108.5" y="181.9" width="3.8" height="3.8"/>
		</g>
	</g>
	<g>
		<g>
			<rect x="123.9" y="189.6" width="3.8" height="3.8"/>
		</g>
	</g>
	<g>
		<g>
			<rect x="131.5" y="189.6" width="3.8" height="3.8"/>
		</g>
	</g>
	<g>
		<g>
			<rect x="139.2" y="189.6" width="3.8" height="3.8"/>
		</g>
	</g>
	<g>
		<g>
			<rect x="116.2" y="189.6" width="3.8" height="3.8"/>
		</g>
	</g>
	<g>
		<g>
			<rect x="108.5" y="189.6" width="3.8" height="3.8"/>
		</g>
	</g>
</g>
<path d="M77.2,63.8c0-0.8-0.3-2-0.7-2.7L66.1,43.1c-0.4-0.7-1.1-0.7-1.5,0L41.5,83c-0.4,0.7-0.1,1.3,0.7,1.3h21.6c0.8,0,2.1,0,2.9,0
	h1.5c0.8,0,1.8-0.6,2.2-1.3l6-10.4c0.4-0.7,0.7-1.9,0.7-2.7V63.8z M65.1,51.8c-0.8,0-1.3-0.6-1.2-1.4l1.1-5.7c0.2-0.8,0.6-0.9,1-0.2
	l3.5,6c0.4,0.7,0.1,1.3-0.7,1.3H65.1z M107.9,82.8c0,0.8-0.7,1.5-1.5,1.5H91.3c-0.8,0-2.1,0-2.9,0h-1.5c-0.8,0-1.8-0.6-2.2-1.3
	l-6-10.4c-0.4-0.7-0.7-1.9-0.7-2.7v-6c0-0.8,0.3-2,0.7-2.7l29.8-51.7c0.4-0.7,1.1-0.7,1.5,0L152.5,83c0.4,0.7,0.1,1.3-0.7,1.3h-41.7
	c-0.8,0-1.5-0.7-1.5-1.5V69.2c0-0.8,0.7-1.5,1.5-1.5h1.8c0.8,0,2.5-0.4,2.7-0.8c0.2-0.4,0.4-1.4,0.4-2.2V51.4c0-0.8,0.4-2,0.8-2.7
	L123,38c0.5-0.7,1.1-1.7,1.1-1.9c0-0.2,0-0.6,0-0.7c0-0.1-0.4-0.7-0.8-1.4l-12.8-22.1c-0.4-0.7-1-1.6-1.1-1.4
	c-0.1,0.2-0.1,0.9-0.1,1.7v21c0,0.8-0.4,2-0.8,2.7l-5.7,8.4c-0.5,0.7-1.1,1.7-1.1,1.9c0,0.2,0,0.5,0,0.5c0,0,0,0.7,0,1.5v16.6
	c0,0.8,0.4,2.5,0.8,2.7c0.4,0.2,1.4,0.4,2.2,0.4h1.7c0.8,0,1.5,0.7,1.5,1.5V82.8z"/>
</svg>
