<?xml version="1.0" encoding="utf-8"?>
<!-- Generator: Adobe Illustrator 24.2.0, SVG Export Plug-In . SVG Version: 6.00 Build 0)  -->
<svg version="1.1" id="Layer_1" xmlns="http://www.w3.org/2000/svg" xmlns:xlink="http://www.w3.org/1999/xlink" x="0px" y="0px"
	 viewBox="0 0 194 288" style="enable-background:new 0 0 194 288;" xml:space="preserve">
<g>
	<path d="M158,38.9c-13.3,0-24.4,9.1-27.5,21.5H42.7c-3,0-5.8,1.1-7.9,3.2c0,0,0,0,0,0c0,0,0,0,0,0c-2.2,2.2-3.4,5-3.4,8.1v73.4
		c0,3.1,1.3,6.1,3.6,8.3c0,0,0,0,0,0c2.1,2,4.9,3.1,7.7,3.1h107c2.9,0,5.6-1.1,7.7-3c0,0,0,0,0,0c2.3-2.1,3.6-5.1,3.6-8.3V95.6
		c14.2-1.5,25.4-13.6,25.4-28.2C186.4,51.7,173.7,38.9,158,38.9L158,38.9z M42.7,66.5h87c0,0.3,0,0.6,0,0.9c0,5.4,1.5,10.5,4.2,14.8
		l-35.6,33.7h-4L42,66.5C42.2,66.5,42.5,66.5,42.7,66.5L42.7,66.5z M37.4,71.7c0-0.4,0-0.8,0.1-1.2L80,110.7l-42.3,36
		c-0.2-0.5-0.2-1-0.2-1.6L37.4,71.7z M149.7,150.4h-107c0,0,0,0-0.1,0l41.8-35.5l6.5,6.2c0.6,0.5,1.3,0.8,2.1,0.8h6.4
		c0.8,0,1.5-0.3,2.1-0.8l6.5-6.2L149.7,150.4C149.8,150.4,149.7,150.4,149.7,150.4L149.7,150.4z M155,145.1c0,0.5-0.1,1.1-0.2,1.6
		l-42.3-36L137.5,87c4.5,4.7,10.6,7.9,17.5,8.6L155,145.1z M158,89.7c-12.3,0-22.3-10-22.3-22.3S145.7,45,158,45
		c12.3,0,22.3,10,22.3,22.3S170.3,89.7,158,89.7z"/>
	<g>
		<path d="M143.2,70.4v-6.7c-1.3,0.9-2.2,1.4-2.7,1.4c-0.2,0-0.4-0.1-0.6-0.2s-0.3-0.4-0.3-0.6c0-0.2,0.1-0.4,0.2-0.5
			c0.2-0.1,0.5-0.3,0.9-0.5c0.6-0.3,1.1-0.6,1.5-0.9c0.4-0.3,0.7-0.7,1-1c0.3-0.4,0.5-0.6,0.6-0.7c0.1-0.1,0.3-0.1,0.5-0.1
			c0.3,0,0.5,0.1,0.7,0.3c0.2,0.2,0.2,0.5,0.2,0.8v8.4c0,1-0.4,1.5-1.1,1.5c-0.3,0-0.6-0.1-0.8-0.3C143.3,71,143.2,70.7,143.2,70.4z
			"/>
		<path d="M155.6,62.5h-3.7l-0.4,2.4c0.7-0.4,1.4-0.6,2-0.6c0.5,0,1,0.1,1.4,0.3c0.4,0.2,0.8,0.4,1.1,0.7c0.3,0.3,0.6,0.7,0.8,1.1
			c0.2,0.4,0.3,0.9,0.3,1.4c0,0.7-0.2,1.3-0.5,1.9c-0.3,0.6-0.8,1-1.5,1.4c-0.6,0.3-1.4,0.5-2.2,0.5c-0.9,0-1.7-0.2-2.3-0.5
			c-0.6-0.3-1-0.7-1.2-1.1c-0.2-0.4-0.4-0.8-0.4-1.1c0-0.2,0.1-0.4,0.3-0.5s0.4-0.3,0.6-0.3c0.4,0,0.8,0.2,1,0.7
			c0.2,0.4,0.5,0.8,0.8,1c0.4,0.2,0.7,0.4,1.2,0.4c0.4,0,0.7-0.1,1-0.3c0.3-0.2,0.5-0.5,0.7-0.8c0.2-0.3,0.2-0.7,0.2-1.2
			c0-0.5-0.1-0.9-0.3-1.2c-0.2-0.3-0.4-0.6-0.7-0.7c-0.3-0.2-0.6-0.2-1-0.2c-0.4,0-0.8,0.1-1,0.2c-0.2,0.1-0.5,0.3-0.8,0.5
			c-0.4,0.3-0.7,0.4-0.9,0.4c-0.3,0-0.5-0.1-0.7-0.3c-0.2-0.2-0.3-0.4-0.3-0.6c0,0,0-0.2,0.1-0.5l0.7-3.5c0.1-0.4,0.2-0.7,0.4-0.9
			c0.2-0.2,0.5-0.3,1-0.3h4.1c0.8,0,1.2,0.3,1.2,0.9c0,0.3-0.1,0.5-0.3,0.6C156.2,62.4,155.9,62.5,155.6,62.5z"/>
		<path d="M166.3,66.1c0,0.8-0.1,1.5-0.2,2.1c-0.1,0.6-0.3,1.1-0.6,1.6c-0.4,0.6-0.8,1-1.4,1.3c-0.6,0.3-1.2,0.5-1.9,0.5
			c-0.8,0-1.5-0.2-2.1-0.6c-0.6-0.4-1.1-1-1.4-1.7c-0.2-0.4-0.3-0.9-0.4-1.3c-0.1-0.5-0.1-1-0.1-1.6c0-0.7,0-1.4,0.1-2
			c0.1-0.6,0.2-1.1,0.4-1.5c0.3-0.7,0.7-1.2,1.3-1.6c0.6-0.4,1.3-0.6,2.1-0.6c0.5,0,1,0.1,1.5,0.2c0.4,0.2,0.8,0.4,1.1,0.7
			c0.3,0.3,0.6,0.7,0.8,1.2C166.1,63.5,166.3,64.6,166.3,66.1z M164.2,66c0-0.9-0.1-1.6-0.2-2.2c-0.1-0.6-0.3-1-0.6-1.3
			c-0.3-0.3-0.6-0.4-1.1-0.4c-0.7,0-1.2,0.3-1.4,1c-0.3,0.6-0.4,1.6-0.4,3c0,0.9,0.1,1.7,0.2,2.3c0.1,0.6,0.3,1,0.6,1.3
			c0.3,0.3,0.6,0.4,1.1,0.4c0.5,0,0.8-0.2,1.1-0.5c0.3-0.3,0.5-0.8,0.6-1.3C164.2,67.7,164.2,66.9,164.2,66z"/>
		<path d="M175.8,66.1c0,0.8-0.1,1.5-0.2,2.1c-0.1,0.6-0.3,1.1-0.6,1.6c-0.4,0.6-0.8,1-1.4,1.3c-0.6,0.3-1.2,0.5-1.9,0.5
			c-0.8,0-1.5-0.2-2.1-0.6c-0.6-0.4-1.1-1-1.4-1.7c-0.2-0.4-0.3-0.9-0.4-1.3s-0.1-1-0.1-1.6c0-0.7,0-1.4,0.1-2
			c0.1-0.6,0.2-1.1,0.4-1.5c0.3-0.7,0.7-1.2,1.3-1.6c0.6-0.4,1.3-0.6,2.1-0.6c0.5,0,1,0.1,1.5,0.2c0.4,0.2,0.8,0.4,1.1,0.7
			c0.3,0.3,0.6,0.7,0.8,1.2C175.6,63.5,175.8,64.6,175.8,66.1z M173.7,66c0-0.9-0.1-1.6-0.2-2.2c-0.1-0.6-0.3-1-0.6-1.3
			c-0.3-0.3-0.6-0.4-1.1-0.4c-0.7,0-1.2,0.3-1.4,1c-0.3,0.6-0.4,1.6-0.4,3c0,0.9,0.1,1.7,0.2,2.3c0.1,0.6,0.3,1,0.6,1.3
			c0.3,0.3,0.6,0.4,1.1,0.4c0.5,0,0.8-0.2,1.1-0.5c0.3-0.3,0.5-0.8,0.6-1.3C173.6,67.7,173.7,66.9,173.7,66z"/>
	</g>
</g>
<g>
	<path d="M62.1,206.1c1.8-1.9,4.2-2.8,7-2.8c3.8,0,6.5,1.3,8.3,3.8c1,1.4,1.5,2.8,1.6,4.2h-4.7c-0.3-1.1-0.7-1.9-1.2-2.5
		c-0.8-1-2.1-1.5-3.8-1.5c-1.7,0-3,0.7-4,2.1c-1,1.4-1.5,3.4-1.5,5.9s0.5,4.5,1.5,5.7s2.3,1.9,3.9,1.9c1.6,0,2.9-0.5,3.7-1.6
		c0.5-0.6,0.9-1.5,1.2-2.6h4.7c-0.4,2.5-1.4,4.5-3.1,6c-1.7,1.6-3.8,2.3-6.4,2.3c-3.2,0-5.8-1-7.6-3.1c-1.9-2.1-2.8-5-2.8-8.7
		C58.9,211.3,60,208.2,62.1,206.1z"/>
	<path d="M86.9,226.4h-4.4v-22.7h4.4V226.4z"/>
	<path d="M102.1,210c1.2,0.5,2.1,1.4,2.9,2.5c0.7,1,1.1,2.2,1.3,3.5c0.1,0.8,0.2,1.9,0.1,3.3H94.2c0.1,1.7,0.7,2.9,1.8,3.5
		c0.7,0.4,1.5,0.6,2.4,0.6c1,0,1.8-0.3,2.4-0.8c0.3-0.3,0.6-0.7,0.9-1.2h4.5c-0.1,1-0.7,2-1.6,3c-1.5,1.6-3.6,2.5-6.3,2.5
		c-2.2,0-4.2-0.7-5.9-2.1c-1.7-1.4-2.6-3.6-2.6-6.7c0-2.9,0.8-5.1,2.3-6.7s3.5-2.3,6-2.3C99.6,209.2,100.9,209.4,102.1,210z
		 M95.5,213.7c-0.6,0.6-1,1.5-1.2,2.6h7.6c-0.1-1.2-0.5-2.1-1.2-2.7c-0.7-0.6-1.6-0.9-2.6-0.9C97,212.8,96.1,213.1,95.5,213.7z"/>
	<path d="M115.4,216.2c0.8-0.1,1.4-0.2,1.8-0.4c0.6-0.3,0.9-0.7,0.9-1.2c0-0.7-0.2-1.2-0.7-1.4c-0.5-0.3-1.2-0.4-2.1-0.4
		c-1.1,0-1.8,0.3-2.2,0.8c-0.3,0.4-0.5,0.9-0.6,1.5h-4.2c0.1-1.5,0.5-2.7,1.2-3.6c1.2-1.5,3.2-2.2,6-2.2c1.8,0,3.5,0.4,4.9,1.1
		c1.4,0.7,2.2,2.1,2.2,4.1v7.7c0,0.5,0,1.2,0,1.9c0,0.6,0.1,1,0.3,1.2c0.1,0.2,0.4,0.4,0.6,0.5v0.6h-4.8c-0.1-0.3-0.2-0.7-0.3-1
		c-0.1-0.3-0.1-0.6-0.1-1c-0.6,0.7-1.3,1.2-2.1,1.7c-1,0.5-2,0.8-3.2,0.8c-1.5,0-2.8-0.4-3.8-1.3c-1-0.9-1.5-2.1-1.5-3.7
		c0-2.1,0.8-3.6,2.4-4.5c0.9-0.5,2.2-0.9,3.9-1.1L115.4,216.2z M118.1,218.2c-0.3,0.2-0.6,0.3-0.9,0.4c-0.3,0.1-0.7,0.2-1.2,0.3
		l-1,0.2c-0.9,0.2-1.6,0.4-2,0.6c-0.7,0.4-1,1-1,1.9c0,0.8,0.2,1.3,0.6,1.6s0.9,0.5,1.5,0.5c1,0,1.8-0.3,2.7-0.8
		c0.8-0.6,1.2-1.6,1.3-3V218.2z"/>
	<path d="M135.6,209.2c0.1,0,0.2,0,0.4,0v4.5c-0.3,0-0.5-0.1-0.7-0.1c-0.2,0-0.4,0-0.5,0c-1.8,0-3,0.6-3.6,1.7
		c-0.3,0.6-0.5,1.6-0.5,3v8h-4.4v-16.8h4.2v2.9c0.7-1.1,1.3-1.9,1.8-2.3c0.8-0.7,1.9-1,3.2-1C135.5,209.2,135.6,209.2,135.6,209.2z"
		/>
	<path d="M24.9,264.3v-22.7h3.3l7.5,20.1h0.1l7.3-20.1h3.3v22.7h-2.1V244h-0.1l-7.5,20.3h-2L27.1,244H27v20.3H24.9z"/>
	<path d="M57.5,264.8c-1.1,0-2-0.2-3-0.6c-0.9-0.4-1.7-0.9-2.4-1.6c-0.7-0.7-1.2-1.6-1.6-2.7c-0.4-1.1-0.6-2.3-0.6-3.8
		c0-1.2,0.2-2.3,0.5-3.4s0.8-2,1.4-2.7c0.6-0.8,1.4-1.4,2.4-1.8c0.9-0.5,2.1-0.7,3.3-0.7c1.3,0,2.4,0.2,3.3,0.7
		c0.9,0.5,1.7,1.1,2.4,1.8c0.6,0.8,1.1,1.7,1.4,2.7c0.3,1.1,0.5,2.2,0.5,3.4c0,1.3-0.2,2.5-0.5,3.5c-0.4,1.1-0.9,2-1.5,2.7
		s-1.5,1.3-2.4,1.8C59.7,264.6,58.7,264.8,57.5,264.8z M63.1,256.1c0-1-0.1-1.9-0.3-2.7s-0.5-1.6-1-2.2c-0.4-0.6-1-1.1-1.7-1.5
		c-0.7-0.4-1.5-0.5-2.6-0.5c-1,0-1.8,0.2-2.5,0.6c-0.7,0.4-1.3,0.9-1.7,1.5c-0.4,0.6-0.8,1.4-1,2.2c-0.2,0.8-0.3,1.7-0.3,2.6
		c0,1,0.1,1.9,0.4,2.8c0.2,0.9,0.6,1.6,1.1,2.2c0.5,0.6,1,1.1,1.7,1.4s1.5,0.5,2.4,0.5c1,0,1.8-0.2,2.5-0.6c0.7-0.4,1.3-0.9,1.7-1.6
		c0.4-0.7,0.8-1.4,1-2.2C63,257.9,63.1,257,63.1,256.1z"/>
	<path d="M70.5,264.3h-1.9V248h1.9v2.3c0.8-0.8,1.5-1.5,2.4-2c0.8-0.5,1.8-0.8,2.9-0.8c1,0,1.9,0.2,2.8,0.5s1.6,1,2.2,1.8
		c0.4,0.6,0.6,1.2,0.7,1.8s0.1,1.3,0.1,1.9v10.7h-1.9v-10.7c0-1.5-0.3-2.6-1-3.3c-0.7-0.7-1.7-1.1-3.3-1.1c-0.6,0-1.1,0.1-1.6,0.3
		c-0.5,0.2-0.9,0.4-1.3,0.7c-0.4,0.3-0.7,0.6-1,1c-0.3,0.4-0.5,0.8-0.6,1.2c-0.2,0.5-0.3,1-0.3,1.5c0,0.5-0.1,1-0.1,1.6V264.3z"/>
	<path d="M86.3,244.4v-2.8h2.1v2.8H86.3z M86.4,264.3V248h1.9v16.4H86.4z"/>
	<path d="M98.9,264.4c-0.2,0-0.5,0.1-0.9,0.2s-0.8,0.2-1.3,0.2c-0.9,0-1.7-0.2-2.2-0.7c-0.5-0.5-0.7-1.3-0.7-2.5v-12h-2.3V248h2.3
		v-4.5h1.9v4.5h3.1v1.6h-3.1v11.2c0,0.4,0,0.7,0,1s0.1,0.5,0.2,0.7s0.3,0.3,0.5,0.4c0.2,0.1,0.5,0.1,0.9,0.1c0.3,0,0.5,0,0.8-0.1
		c0.3,0,0.5-0.1,0.8-0.2V264.4z"/>
	<path d="M108.4,264.8c-1.1,0-2-0.2-3-0.6c-0.9-0.4-1.7-0.9-2.4-1.6c-0.7-0.7-1.2-1.6-1.6-2.7c-0.4-1.1-0.6-2.3-0.6-3.8
		c0-1.2,0.2-2.3,0.5-3.4s0.8-2,1.4-2.7s1.4-1.4,2.4-1.8s2.1-0.7,3.3-0.7c1.3,0,2.4,0.2,3.3,0.7s1.7,1.1,2.4,1.8
		c0.6,0.8,1.1,1.7,1.4,2.7c0.3,1.1,0.5,2.2,0.5,3.4c0,1.3-0.2,2.5-0.5,3.5c-0.4,1.1-0.9,2-1.5,2.7c-0.7,0.8-1.5,1.3-2.4,1.8
		C110.6,264.6,109.6,264.8,108.4,264.8z M114,256.1c0-1-0.1-1.9-0.3-2.7c-0.2-0.8-0.5-1.6-1-2.2c-0.4-0.6-1-1.1-1.7-1.5
		c-0.7-0.4-1.5-0.5-2.6-0.5c-1,0-1.8,0.2-2.5,0.6c-0.7,0.4-1.3,0.9-1.7,1.5c-0.4,0.6-0.8,1.4-1,2.2c-0.2,0.8-0.3,1.7-0.3,2.6
		c0,1,0.1,1.9,0.4,2.8c0.2,0.9,0.6,1.6,1.1,2.2c0.5,0.6,1,1.1,1.7,1.4c0.7,0.3,1.5,0.5,2.4,0.5c1,0,1.8-0.2,2.5-0.6
		c0.7-0.4,1.3-0.9,1.7-1.6c0.4-0.7,0.8-1.4,1-2.2C113.9,257.9,114,257,114,256.1z"/>
	<path d="M121.5,264.3h-1.9V248h1.9v3.1h0.1c0.5-1.3,1.2-2.2,2-2.7s1.9-0.8,3.3-0.8v2.1c-1.1,0-2,0.1-2.7,0.5
		c-0.7,0.4-1.2,0.8-1.7,1.5c-0.4,0.6-0.7,1.3-0.9,2.2c-0.2,0.8-0.2,1.7-0.2,2.6V264.3z"/>
	<path d="M130.2,244.4v-2.8h2.1v2.8H130.2z M130.3,264.3V248h1.9v16.4H130.3z"/>
	<path d="M138.9,264.3H137V248h1.9v2.3c0.8-0.8,1.5-1.5,2.4-2c0.8-0.5,1.8-0.8,2.9-0.8c1,0,1.9,0.2,2.8,0.5c0.9,0.3,1.6,1,2.2,1.8
		c0.4,0.6,0.6,1.2,0.7,1.8c0.1,0.6,0.1,1.3,0.1,1.9v10.7h-1.9v-10.7c0-1.5-0.3-2.6-1-3.3c-0.7-0.7-1.7-1.1-3.3-1.1
		c-0.6,0-1.1,0.1-1.6,0.3c-0.5,0.2-0.9,0.4-1.3,0.7c-0.4,0.3-0.7,0.6-1,1s-0.5,0.8-0.6,1.2c-0.2,0.5-0.3,1-0.3,1.5
		c0,0.5-0.1,1-0.1,1.6V264.3z"/>
	<path d="M167.2,248h1.9v14.8c0,1.1-0.1,2.1-0.3,3.1s-0.6,1.9-1.2,2.6s-1.3,1.4-2.3,1.8c-1,0.5-2.3,0.7-3.8,0.7
		c-1.2,0-2.2-0.2-3.1-0.5c-0.9-0.3-1.6-0.7-2.1-1.2c-0.5-0.5-1-1-1.2-1.5s-0.4-1.1-0.5-1.6h2c0.1,0.6,0.4,1.1,0.7,1.5
		s0.7,0.7,1.1,0.9c0.4,0.2,0.9,0.4,1.4,0.5s1.1,0.1,1.6,0.1c1.3,0,2.3-0.2,3.1-0.7c0.8-0.4,1.4-1,1.8-1.7c0.4-0.7,0.7-1.5,0.8-2.4
		c0.1-0.9,0.2-1.8,0.1-2.8c-0.6,1-1.4,1.8-2.5,2.3s-2.2,0.8-3.3,0.8c-1.2,0-2.3-0.2-3.2-0.7c-0.9-0.5-1.7-1.1-2.3-1.9
		c-0.6-0.8-1-1.7-1.3-2.8c-0.3-1.1-0.4-2.1-0.4-3.3c0-1.2,0.1-2.3,0.4-3.4c0.3-1.1,0.7-2,1.3-2.7c0.6-0.8,1.4-1.4,2.3-1.8
		c0.9-0.4,2.1-0.7,3.4-0.7c0.5,0,1.1,0.1,1.6,0.2c0.5,0.1,1.1,0.4,1.6,0.6c0.5,0.3,1,0.6,1.4,1s0.8,0.9,1.1,1.4h0.1V248z
		 M167.2,256.2c0-1-0.1-1.9-0.4-2.8s-0.6-1.6-1.1-2.2c-0.5-0.6-1-1.1-1.7-1.5c-0.7-0.4-1.5-0.5-2.4-0.5c-0.8,0-1.5,0.1-2.2,0.4
		s-1.3,0.7-1.8,1.2s-0.9,1.2-1.2,2c-0.3,0.8-0.4,1.7-0.4,2.7c0,1,0,2,0.3,2.9c0.2,0.9,0.5,1.7,1,2.4s1.1,1.2,1.8,1.6
		s1.6,0.6,2.6,0.6c0.9,0,1.6-0.2,2.3-0.6c0.7-0.4,1.3-0.9,1.7-1.5s0.8-1.3,1.1-2.2C167.1,258,167.2,257.1,167.2,256.2z"/>
</g>
</svg>
