<?xml version="1.0" encoding="utf-8"?>
<!-- Generator: Adobe Illustrator 24.2.0, SVG Export Plug-In . SVG Version: 6.00 Build 0)  -->
<svg version="1.1" id="Layer_1" xmlns="http://www.w3.org/2000/svg" xmlns:xlink="http://www.w3.org/1999/xlink" x="0px" y="0px"
	 viewBox="0 0 194 288" style="enable-background:new 0 0 194 288;" xml:space="preserve">
<g>
	<path d="M53.1,229.5v2.2h-3.7v10.2h-2.6v-10.2H43v-2.2H53.1z"/>
	<path d="M61.7,229.5h2.9l-4.2,7.8v4.7h-2.6v-4.7l-4.3-7.8h3.1l2.6,5.4L61.7,229.5z"/>
	<path d="M74.5,236.5c-0.7,0.6-1.8,0.9-3.1,0.9h-2.6v4.5h-2.6v-12.4h5.3c1.2,0,2.2,0.3,2.9,1s1.1,1.6,1.1,3
		C75.6,234.9,75.2,235.9,74.5,236.5z M72.5,232c-0.3-0.3-0.8-0.4-1.4-0.4h-2.3v3.7h2.3c0.6,0,1.1-0.1,1.4-0.4
		c0.3-0.3,0.5-0.8,0.5-1.4C73,232.8,72.8,232.3,72.5,232z"/>
	<path d="M86.9,231.7h-6.6v2.6h6v2.2h-6v3.2h6.9v2.2h-9.4v-12.4h9.1V231.7z"/>
	<path d="M91.1,238.1c0.1,0.6,0.2,1,0.5,1.3c0.4,0.5,1.2,0.8,2.2,0.8c0.6,0,1.1-0.1,1.5-0.2c0.7-0.3,1.1-0.7,1.1-1.4
		c0-0.4-0.2-0.7-0.5-1c-0.4-0.2-0.9-0.4-1.7-0.6l-1.3-0.3c-1.3-0.3-2.2-0.6-2.7-1c-0.8-0.6-1.3-1.5-1.3-2.7c0-1.1,0.4-2,1.2-2.8
		c0.8-0.7,2-1.1,3.6-1.1c1.3,0,2.5,0.3,3.4,1c0.9,0.7,1.4,1.7,1.5,3H96c0-0.7-0.4-1.3-1-1.6c-0.4-0.2-0.9-0.3-1.5-0.3
		c-0.7,0-1.2,0.1-1.6,0.4c-0.4,0.3-0.6,0.6-0.6,1.1c0,0.4,0.2,0.8,0.6,1c0.3,0.1,0.8,0.3,1.7,0.5l2.2,0.5c1,0.2,1.7,0.5,2.2,0.9
		c0.7,0.6,1.1,1.4,1.1,2.5c0,1.1-0.4,2.1-1.3,2.8c-0.9,0.8-2.1,1.1-3.7,1.1c-1.6,0-2.9-0.4-3.9-1.1c-0.9-0.7-1.4-1.8-1.4-3.1H91.1z"
		/>
	<path d="M101.9,230.8c1-1,2.3-1.5,3.8-1.5c2.1,0,3.6,0.7,4.5,2.1c0.5,0.8,0.8,1.5,0.9,2.3h-2.6c-0.2-0.6-0.4-1-0.6-1.4
		c-0.5-0.5-1.1-0.8-2.1-0.8c-0.9,0-1.7,0.4-2.2,1.1c-0.5,0.8-0.8,1.8-0.8,3.2s0.3,2.4,0.8,3.1c0.6,0.7,1.3,1,2.2,1
		c0.9,0,1.6-0.3,2-0.9c0.3-0.3,0.5-0.8,0.6-1.4h2.6c-0.2,1.4-0.8,2.5-1.7,3.3s-2.1,1.3-3.5,1.3c-1.8,0-3.2-0.6-4.2-1.7
		c-1-1.2-1.5-2.7-1.5-4.7C100.2,233.6,100.8,232,101.9,230.8z"/>
	<path d="M121.2,229.8c0.5,0.2,0.8,0.5,1.2,0.9c0.3,0.3,0.5,0.7,0.6,1c0.2,0.4,0.2,0.8,0.2,1.3c0,0.6-0.1,1.2-0.4,1.7
		c-0.3,0.6-0.8,1-1.5,1.2c0.6,0.2,1,0.6,1.2,1c0.2,0.4,0.4,1.1,0.4,1.9v0.8c0,0.6,0,1,0.1,1.2c0.1,0.3,0.2,0.6,0.5,0.7v0.3h-2.9
		c-0.1-0.3-0.1-0.5-0.2-0.7c-0.1-0.3-0.1-0.7-0.1-1.1l0-1.2c0-0.8-0.1-1.3-0.4-1.6s-0.8-0.4-1.5-0.4h-2.5v4.9h-2.5v-12.4h6
		C120.1,229.5,120.7,229.6,121.2,229.8z M115.8,231.6v3.3h2.8c0.6,0,1-0.1,1.3-0.2c0.5-0.2,0.7-0.7,0.7-1.4c0-0.8-0.2-1.3-0.7-1.5
		c-0.3-0.1-0.7-0.2-1.2-0.2H115.8z"/>
	<path d="M128.1,241.9h-2.6v-12.4h2.6V241.9z"/>
	<path d="M138.9,236.5c-0.7,0.6-1.8,0.9-3.1,0.9h-2.6v4.5h-2.6v-12.4h5.3c1.2,0,2.2,0.3,2.9,1s1.1,1.6,1.1,3
		C139.9,234.9,139.6,235.9,138.9,236.5z M136.9,232c-0.3-0.3-0.8-0.4-1.4-0.4h-2.3v3.7h2.3c0.6,0,1.1-0.1,1.4-0.4
		c0.3-0.3,0.5-0.8,0.5-1.4C137.4,232.8,137.2,232.3,136.9,232z"/>
	<path d="M151.1,229.5v2.2h-3.7v10.2h-2.6v-10.2H141v-2.2H151.1z"/>
	<path d="M21,250.3h5c1.7,0,3,0.6,3.9,1.8c0.8,1.1,1.2,2.5,1.2,4.2c0,1.3-0.2,2.5-0.7,3.6c-0.9,1.9-2.3,2.8-4.4,2.8H21V250.3z
		 M25.7,261.2c0.6,0,1-0.1,1.4-0.2c0.6-0.2,1.2-0.6,1.6-1.3c0.3-0.5,0.6-1.1,0.7-1.9c0.1-0.5,0.1-0.9,0.1-1.3c0-1.5-0.3-2.7-0.9-3.6
		c-0.6-0.8-1.6-1.3-2.9-1.3h-2.9v9.5H25.7z"/>
	<path d="M33.3,253.6h1.4v1.6c0.1-0.3,0.4-0.7,0.9-1.1c0.5-0.4,1-0.7,1.6-0.7c0,0,0.1,0,0.1,0c0.1,0,0.2,0,0.3,0v1.6
		c-0.1,0-0.2,0-0.2,0c-0.1,0-0.2,0-0.2,0c-0.8,0-1.4,0.2-1.8,0.7s-0.6,1.1-0.6,1.7v5.2h-1.5V253.6z"/>
	<path d="M43.9,257.2c0.3,0,0.6-0.2,0.7-0.4c0.1-0.1,0.1-0.3,0.1-0.6c0-0.5-0.2-0.9-0.6-1.1c-0.4-0.2-0.9-0.4-1.6-0.4
		c-0.8,0-1.4,0.2-1.7,0.6c-0.2,0.2-0.3,0.6-0.4,1.1h-1.4c0-1.1,0.4-1.9,1.1-2.3s1.5-0.7,2.4-0.7c1.1,0,1.9,0.2,2.6,0.6
		c0.7,0.4,1,1,1,1.9v5.2c0,0.2,0,0.3,0.1,0.4c0.1,0.1,0.2,0.1,0.4,0.1c0.1,0,0.1,0,0.2,0c0.1,0,0.2,0,0.3,0v1.1
		c-0.2,0.1-0.4,0.1-0.5,0.1c-0.1,0-0.3,0-0.5,0c-0.5,0-0.9-0.2-1.1-0.6c-0.1-0.2-0.2-0.5-0.3-0.8c-0.3,0.4-0.8,0.8-1.3,1.1
		c-0.6,0.3-1.2,0.4-1.9,0.4c-0.8,0-1.5-0.3-2.1-0.8s-0.8-1.1-0.8-1.9c0-0.8,0.3-1.5,0.8-1.9s1.2-0.7,2.1-0.9L43.9,257.2z
		 M40.7,261.3c0.3,0.3,0.7,0.4,1.1,0.4c0.5,0,1.1-0.1,1.6-0.4c0.8-0.4,1.3-1.1,1.3-2v-1.2c-0.2,0.1-0.4,0.2-0.7,0.3
		s-0.6,0.1-0.9,0.2l-0.9,0.1c-0.6,0.1-1,0.2-1.2,0.3c-0.5,0.3-0.7,0.7-0.7,1.3C40.2,260.7,40.3,261,40.7,261.3z"/>
	<path d="M53.6,254c0.3,0.2,0.6,0.5,0.9,0.9v-1.1h1.4v8.2c0,1.1-0.2,2.1-0.5,2.7c-0.6,1.2-1.8,1.8-3.6,1.8c-1,0-1.8-0.2-2.4-0.7
		c-0.7-0.4-1-1.1-1.1-2h1.5c0.1,0.4,0.2,0.7,0.4,0.9c0.3,0.3,0.9,0.5,1.6,0.5c1.2,0,1.9-0.4,2.3-1.2c0.2-0.5,0.3-1.3,0.3-2.6
		c-0.3,0.5-0.7,0.8-1.1,1c-0.4,0.2-1,0.3-1.7,0.3c-1,0-1.8-0.3-2.6-1s-1.1-1.8-1.1-3.4c0-1.5,0.4-2.7,1.1-3.5s1.6-1.3,2.7-1.3
		C52.5,253.5,53.1,253.6,53.6,254z M53.8,255.6c-0.5-0.5-1-0.8-1.8-0.8c-1.1,0-1.8,0.5-2.2,1.5c-0.2,0.5-0.3,1.2-0.3,2.1
		c0,1,0.2,1.8,0.6,2.3c0.4,0.5,1,0.8,1.7,0.8c1.1,0,1.8-0.5,2.3-1.5c0.2-0.6,0.4-1.2,0.4-2C54.5,257,54.3,256.2,53.8,255.6z"/>
	<path d="M64.4,254.2c-0.2-0.4-0.3-0.8-0.3-1.2c0-0.8,0.3-1.5,0.8-2c0.5-0.5,1.3-0.8,2.2-0.8c0.9,0,1.5,0.2,2,0.7s0.7,1.1,0.7,1.8
		c0,0.8-0.2,1.5-0.7,2.1c-0.3,0.3-0.8,0.8-1.5,1.2l2.3,2.7c0.1-0.5,0.3-0.8,0.3-1c0.1-0.2,0.1-0.5,0.2-0.9h1.4
		c-0.1,0.8-0.3,1.6-0.6,2.3c-0.3,0.7-0.4,1-0.4,0.9l2.2,2.7h-2l-1.2-1.4c-0.5,0.5-0.9,0.9-1.3,1.1c-0.7,0.4-1.4,0.6-2.3,0.6
		c-1.3,0-2.2-0.3-2.8-1c-0.6-0.7-0.9-1.5-0.9-2.4c0-0.9,0.3-1.7,0.8-2.4c0.3-0.4,1-0.9,1.9-1.4C65,255.2,64.6,254.7,64.4,254.2z
		 M68.1,261.2c0.4-0.3,0.8-0.6,1-1l-2.8-3.4c-0.8,0.5-1.3,0.9-1.5,1.2c-0.4,0.4-0.6,0.9-0.6,1.5c0,0.7,0.2,1.2,0.7,1.5
		c0.5,0.4,1,0.5,1.5,0.5C67.1,261.6,67.6,261.5,68.1,261.2z M68,254.2c0.3-0.4,0.5-0.8,0.5-1.3c0-0.4-0.1-0.7-0.4-0.9
		c-0.2-0.3-0.6-0.4-1-0.4c-0.6,0-1.1,0.2-1.3,0.6c-0.1,0.2-0.2,0.4-0.2,0.7c0,0.3,0.1,0.7,0.3,1c0.2,0.3,0.5,0.7,0.9,1.2
		C67.4,254.7,67.8,254.4,68,254.2z"/>
	<path d="M79.7,250.3h5c1.7,0,3,0.6,3.9,1.8c0.8,1.1,1.2,2.5,1.2,4.2c0,1.3-0.2,2.5-0.7,3.6c-0.9,1.9-2.3,2.8-4.4,2.8h-4.9V250.3z
		 M84.3,261.2c0.6,0,1-0.1,1.4-0.2c0.6-0.2,1.2-0.6,1.6-1.3c0.3-0.5,0.6-1.1,0.7-1.9c0.1-0.5,0.1-0.9,0.1-1.3c0-1.5-0.3-2.7-0.9-3.6
		c-0.6-0.8-1.6-1.3-2.9-1.3h-2.9v9.5H84.3z"/>
	<path d="M91.9,253.6h1.4v1.6c0.1-0.3,0.4-0.7,0.9-1.1c0.5-0.4,1-0.7,1.6-0.7c0,0,0.1,0,0.1,0c0.1,0,0.2,0,0.3,0v1.6
		c-0.1,0-0.2,0-0.2,0c-0.1,0-0.2,0-0.2,0c-0.8,0-1.4,0.2-1.8,0.7s-0.6,1.1-0.6,1.7v5.2h-1.5V253.6z"/>
	<path d="M104.2,254.5c0.8,0.8,1.2,1.9,1.2,3.4c0,1.5-0.4,2.7-1.1,3.6c-0.7,1-1.8,1.4-3.3,1.4c-1.2,0-2.2-0.4-2.9-1.3
		c-0.7-0.8-1.1-2-1.1-3.4c0-1.5,0.4-2.7,1.1-3.6c0.8-0.9,1.8-1.3,3.1-1.3C102.4,253.4,103.4,253.8,104.2,254.5z M103.2,260.5
		c0.4-0.8,0.6-1.6,0.6-2.5c0-0.8-0.1-1.5-0.4-2.1c-0.4-0.8-1.2-1.2-2.2-1.2c-0.9,0-1.6,0.4-2,1.1c-0.4,0.7-0.6,1.6-0.6,2.6
		c0,1,0.2,1.8,0.6,2.4c0.4,0.6,1.1,1,2,1C102.2,261.7,102.9,261.3,103.2,260.5z"/>
	<path d="M107.1,253.7h1.5v1.2c0.3-0.4,0.6-0.7,1-1c0.5-0.3,1.1-0.5,1.8-0.5c1,0,1.9,0.4,2.6,1.2c0.7,0.8,1.1,1.9,1.1,3.4
		c0,2-0.5,3.4-1.6,4.2c-0.7,0.5-1.4,0.8-2.3,0.8c-0.7,0-1.3-0.1-1.7-0.4c-0.3-0.2-0.6-0.5-0.9-0.9v4.6h-1.5V253.7z M112.8,260.8
		c0.5-0.6,0.7-1.5,0.7-2.7c0-0.7-0.1-1.3-0.3-1.9c-0.4-1-1.1-1.5-2.2-1.5c-1.1,0-1.8,0.5-2.2,1.6c-0.2,0.6-0.3,1.3-0.3,2.1
		c0,0.7,0.1,1.3,0.3,1.8c0.4,0.9,1.1,1.4,2.2,1.4C111.8,261.6,112.4,261.3,112.8,260.8z"/>
	<path d="M122,250.3h5.5c1.1,0,2,0.3,2.7,0.9c0.7,0.6,1,1.5,1,2.6c0,1-0.3,1.8-0.9,2.5c-0.6,0.7-1.5,1.1-2.8,1.1h-3.9v5.2H122V250.3
		z M128.5,252c-0.4-0.2-0.9-0.3-1.5-0.3h-3.3v4.3h3.3c0.7,0,1.4-0.2,1.8-0.5c0.5-0.3,0.7-0.9,0.7-1.7
		C129.5,252.9,129.2,252.3,128.5,252z"/>
	<path d="M133.2,253.6h1.4v1.6c0.1-0.3,0.4-0.7,0.9-1.1c0.5-0.4,1-0.7,1.6-0.7c0,0,0.1,0,0.1,0s0.2,0,0.3,0v1.6c-0.1,0-0.2,0-0.2,0
		c-0.1,0-0.2,0-0.2,0c-0.8,0-1.4,0.2-1.8,0.7c-0.4,0.5-0.6,1.1-0.6,1.7v5.2h-1.5V253.6z"/>
	<path d="M145.5,254.5c0.8,0.8,1.2,1.9,1.2,3.4c0,1.5-0.4,2.7-1.1,3.6s-1.8,1.4-3.3,1.4c-1.2,0-2.2-0.4-2.9-1.3
		c-0.7-0.8-1.1-2-1.1-3.4c0-1.5,0.4-2.7,1.1-3.6c0.8-0.9,1.8-1.3,3.1-1.3C143.7,253.4,144.7,253.8,145.5,254.5z M144.6,260.5
		c0.4-0.8,0.6-1.6,0.6-2.5c0-0.8-0.1-1.5-0.4-2.1c-0.4-0.8-1.2-1.2-2.2-1.2c-0.9,0-1.6,0.4-2,1.1c-0.4,0.7-0.6,1.6-0.6,2.6
		c0,1,0.2,1.8,0.6,2.4c0.4,0.6,1.1,1,2,1C143.5,261.7,144.2,261.3,144.6,260.5z"/>
	<path d="M147.1,265c0.7,0,1.1-0.1,1.2-0.2s0.2-0.4,0.2-0.9v-10.2h1.5V264c0,0.7-0.1,1.2-0.3,1.5c-0.4,0.6-1,0.8-2,0.8
		c-0.1,0-0.2,0-0.2,0c-0.1,0-0.2,0-0.4,0V265z M150.1,252h-1.5v-1.8h1.5V252z"/>
	<path d="M158,253.9c0.6,0.3,1.1,0.7,1.4,1.2c0.3,0.5,0.5,1,0.6,1.6c0.1,0.4,0.1,1.1,0.1,2h-6.6c0,0.9,0.2,1.7,0.6,2.2
		c0.4,0.6,1,0.8,1.9,0.8c0.8,0,1.4-0.3,1.9-0.8c0.3-0.3,0.4-0.7,0.6-1.1h1.5c0,0.3-0.2,0.7-0.4,1.1c-0.2,0.4-0.5,0.7-0.7,1
		c-0.5,0.5-1,0.8-1.7,0.9c-0.4,0.1-0.8,0.1-1.2,0.1c-1.1,0-2.1-0.4-2.8-1.2c-0.8-0.8-1.2-2-1.2-3.4c0-1.5,0.4-2.6,1.2-3.5
		c0.8-0.9,1.8-1.4,3.1-1.4C156.8,253.4,157.4,253.6,158,253.9z M158.5,257.4c-0.1-0.7-0.2-1.2-0.4-1.6c-0.4-0.7-1.1-1.1-2.1-1.1
		c-0.7,0-1.3,0.3-1.7,0.8s-0.7,1.1-0.7,1.9H158.5z"/>
	<path d="M168,254.1c0.6,0.5,1,1.3,1.2,2.6h-1.5c-0.1-0.6-0.3-1-0.6-1.4c-0.3-0.4-0.8-0.6-1.5-0.6c-1,0-1.7,0.5-2.1,1.4
		c-0.3,0.6-0.4,1.4-0.4,2.3c0,0.9,0.2,1.7,0.6,2.3c0.4,0.6,1,0.9,1.8,0.9c0.6,0,1.1-0.2,1.5-0.6c0.4-0.4,0.6-0.9,0.8-1.6h1.5
		c-0.2,1.2-0.6,2.1-1.3,2.6c-0.7,0.6-1.5,0.8-2.6,0.8c-1.2,0-2.1-0.4-2.8-1.3c-0.7-0.9-1.1-1.9-1.1-3.2c0-1.6,0.4-2.8,1.2-3.7
		c0.8-0.9,1.8-1.3,2.9-1.3C166.5,253.4,167.3,253.6,168,254.1z"/>
	<path d="M171,251.1h1.5v2.5h1.4v1.2h-1.4v5.9c0,0.3,0.1,0.5,0.3,0.6c0.1,0.1,0.3,0.1,0.6,0.1c0.1,0,0.2,0,0.2,0c0.1,0,0.2,0,0.3,0
		v1.2c-0.2,0.1-0.4,0.1-0.5,0.1s-0.4,0-0.6,0c-0.7,0-1.2-0.2-1.4-0.5c-0.3-0.4-0.4-0.8-0.4-1.4v-6h-1.2v-1.2h1.2V251.1z"/>
</g>
<g>
	<g>
		<g>
			<path d="M163.8,89.9h-35.2c-1.9,0-3.5,1.6-3.5,3.5s1.6,3.5,3.5,3.5h35.2c5.8,0,10.5,4.7,10.5,10.5v70.3c0,5.8-4.7,10.5-10.5,10.5
				H93.5c-5.8,0-10.5-4.7-10.5-10.5v-28.1c0-1.9-1.6-3.5-3.5-3.5c-1.9,0-3.5,1.6-3.5,3.5v28.1c0,9.7,7.9,17.6,17.6,17.6h70.3
				c9.7,0,17.6-7.9,17.6-17.6v-70.3C181.4,97.8,173.5,89.9,163.8,89.9z"/>
		</g>
	</g>
	<g>
		<g>
			<path d="M65.4,125h-3.5c-1.9,0-3.5,1.6-3.5,3.5c0,1.9,1.6,3.5,3.5,3.5h3.5c1.9,0,3.5-1.6,3.5-3.5C68.9,126.6,67.3,125,65.4,125z"
				/>
		</g>
	</g>
	<g>
		<g>
			<g>
				<path d="M33.3,26.6h-3.1c-1.7,0-3.3,0.2-4.9,0.7c-1.9,0.5-2.9,2.5-2.4,4.4c0.4,1.5,1.9,2.5,3.4,2.5c0.3,0,0.7,0,1-0.1
					c1-0.3,1.9-0.4,3-0.4h3.1c1.9,0,3.5-1.6,3.5-3.5S35.2,26.6,33.3,26.6z"/>
				<path d="M19.6,111.4v-7.1c0-1.9-1.6-3.5-3.5-3.5s-3.5,1.6-3.5,3.5v7.1c0,1.9,1.6,3.5,3.5,3.5S19.6,113.3,19.6,111.4z"/>
				<path d="M16.1,93.6c1.9,0,3.5-1.6,3.5-3.5v-7.1c0-1.9-1.6-3.5-3.5-3.5s-3.5,1.6-3.5,3.5V90C12.6,92,14.2,93.6,16.1,93.6z"/>
				<path d="M16.1,50.9c1.9,0,3.5-1.6,3.5-3.5v-3.2c0-1,0.1-1.9,0.4-2.9c0.5-1.9-0.6-3.8-2.4-4.3c-1.9-0.6-3.8,0.5-4.3,2.4
					c-0.4,1.6-0.7,3.2-0.7,4.8v3.2C12.6,49.3,14.2,50.9,16.1,50.9z"/>
				<path d="M16.1,72.2c1.9,0,3.5-1.6,3.5-3.5v-7.1c0-1.9-1.6-3.5-3.5-3.5s-3.5,1.6-3.5,3.5v7.1C12.6,70.7,14.2,72.2,16.1,72.2z"/>
				<path d="M27.3,124.6c-1.7-0.5-3.3-1.4-4.5-2.7c-1.4-1.4-3.6-1.4-5,0c-1.4,1.4-1.4,3.6,0,5c2.1,2.1,4.7,3.6,7.6,4.4
					c0.3,0.1,0.6,0.1,1,0.1c1.5,0,2.9-1,3.4-2.6C30.3,127.1,29.2,125.2,27.3,124.6z"/>
				<path d="M114,43.7c0.3,0,0.7,0,1-0.1c1.9-0.5,2.9-2.5,2.4-4.4c-0.8-2.8-2.4-5.4-4.5-7.5c-1.4-1.4-3.6-1.4-5,0
					c-1.4,1.4-1.4,3.6,0,5c1.3,1.3,2.2,2.8,2.7,4.5C111.1,42.7,112.5,43.7,114,43.7z"/>
				<path d="M97.3,26.6h-7.1c-1.9,0-3.5,1.6-3.5,3.5s1.6,3.5,3.5,3.5h7.1c1.9,0,3.5-1.6,3.5-3.5S99.2,26.6,97.3,26.6z"/>
				<path d="M47.6,125h-7.1c-1.9,0-3.5,1.6-3.5,3.5c0,1.9,1.6,3.5,3.5,3.5h7.1c1.9,0,3.5-1.6,3.5-3.5C51.1,126.6,49.6,125,47.6,125z
					"/>
				<path d="M114.6,50.8c-1.9,0-3.5,1.6-3.5,3.5v7.1c0,1.9,1.6,3.5,3.5,3.5c1.9,0,3.5-1.6,3.5-3.5v-7.1
					C118.1,52.4,116.5,50.8,114.6,50.8z"/>
				<path d="M76,26.6h-7.1c-1.9,0-3.5,1.6-3.5,3.5s1.6,3.5,3.5,3.5h7.1c1.9,0,3.5-1.6,3.5-3.5S77.9,26.6,76,26.6z"/>
				<path d="M54.6,26.6h-7.1c-1.9,0-3.5,1.6-3.5,3.5s1.6,3.5,3.5,3.5h7.1c1.9,0,3.5-1.6,3.5-3.5S56.6,26.6,54.6,26.6z"/>
			</g>
		</g>
	</g>
	<g>
		<g>
			<path d="M114.6,72.3c-1.9,0-3.5,1.6-3.5,3.5v3.5c0,1.9,1.6,3.5,3.5,3.5c1.9,0,3.5-1.6,3.5-3.5v-3.5
				C118.1,73.9,116.5,72.3,114.6,72.3z"/>
		</g>
	</g>
	<path d="M127.8,113.1L80.3,65.5c-1.7-1.4-4.4-0.1-4.4,2v65c0,1.5,1.2,2.6,2.6,2.6c0.7,0,1.3-0.3,1.7-0.6L93.4,123l10.7,25.1
		c0.2,0.4,0.5,0.8,1,0.9c0.2,0.1,0.4,0.1,0.7,0.1c0.2,0,0.5,0,0.7-0.1l11.3-4.8c0.9-0.4,1.3-1.4,0.9-2.3l-10.4-24.3h17.6
		c1.5,0,2.6-1.2,2.6-2.6C128.6,114.5,128.5,113.9,127.8,113.1z"/>
</g>
</svg>
